<?xml version="1.0" encoding="UTF-8"?>
<svg version="1.1" xmlns="http://www.w3.org/2000/svg" width="656" height="800">
<path d="M0 0 C3.87451365 1.54980546 6.90370604 3.0398755 10.40234375 5.203125 C11.44600098 5.84644775 12.4896582 6.48977051 13.56494141 7.15258789 C14.67788574 7.84473389 15.79083008 8.53687988 16.9375 9.25 C18.10845381 9.97470154 19.2795165 10.69922718 20.45068359 11.42358398 C28.61162851 16.47938377 36.72392539 21.61010996 44.81274414 26.78051758 C54.48600546 32.9622829 64.22614899 39.03563676 73.96777344 45.10888672 C78.98090536 48.23543421 83.99029558 51.36796466 89 54.5 C95.05763112 58.28669989 101.1157505 62.07260999 107.17578125 65.85546875 C117.06279278 72.02857747 126.93984891 78.21625756 136.78955078 84.44873047 C147.16573779 91.00934125 157.58591151 97.49979935 168 104 C179.94654283 111.45671842 191.88909636 118.91862847 203.78955078 126.44873047 C213.14256726 132.3624154 222.5324913 138.21704024 231.91943359 144.07666016 C237.94373399 147.83790905 243.96553882 151.60315182 249.98779297 155.36767578 C255.04961403 158.53162365 260.11207148 161.69454438 265.17578125 164.85546875 C275.06279278 171.02857747 284.93984891 177.21625756 294.78955078 183.44873047 C304.14256726 189.3624154 313.5324913 195.21704024 322.91943359 201.07666016 C328.94373399 204.83790905 334.96553882 208.60315182 340.98779297 212.36767578 C346.04961403 215.53162365 351.11207148 218.69454438 356.17578125 221.85546875 C366.06279278 228.02857747 375.93984891 234.21625756 385.78955078 240.44873047 C395.14256726 246.3624154 404.5324913 252.21704024 413.91943359 258.07666016 C419.94373399 261.83790905 425.96553882 265.60315182 431.98779297 269.36767578 C437.04961403 272.53162365 442.11207148 275.69454438 447.17578125 278.85546875 C457.06279278 285.02857747 466.93984891 291.21625756 476.78955078 297.44873047 C487.16573779 304.00934125 497.58591151 310.49979935 508 317 C519.94654283 324.45671842 531.88909636 331.91862847 543.78955078 339.44873047 C553.14256726 345.3624154 562.5324913 351.21704024 571.91943359 357.07666016 C577.94373399 360.83790905 583.96553882 364.60315182 589.98779297 368.36767578 C595.04961403 371.53162365 600.11207148 374.69454438 605.17578125 377.85546875 C616.75683104 385.08605285 628.3310386 392.32688746 639.85888672 399.64208984 C641.29456306 400.55260658 642.73109742 401.46177173 644.16845703 402.36962891 C646.17706317 403.63873438 648.18270826 404.91238021 650.1875 406.1875 C650.78256348 406.56245605 651.37762695 406.93741211 651.99072266 407.32373047 C653.3447445 408.18887959 654.67547496 409.09033436 656 410 C656 410.33 656 410.66 656 411 C520.04 411.33 384.08 411.66 244 412 C271.9365625 439.92496094 299.873125 467.84992188 328.65625 496.62109375 C345.24088493 513.20092727 361.82548604 529.78079435 378.40945697 546.361292 C388.13168597 556.08147969 397.85393829 565.80164403 407.57626249 575.5217365 C408.75233025 576.69753442 409.92839728 577.87333307 411.10446356 579.04913247 C429.87091113 597.81130918 448.6389759 616.57186718 467.40788183 635.33158461 C486.68931966 654.60360011 505.96912766 673.8772446 525.24687085 693.15295586 C527.96641873 695.87221557 530.68598534 698.59145654 533.40556335 701.31068611 C533.94084259 701.84589792 534.47612183 702.38110974 535.02762165 702.93254009 C543.66254603 711.56628033 552.29919935 720.19828906 560.93649201 728.82965998 C569.60872269 737.49601817 578.27914944 746.16417775 586.9477092 754.83420783 C591.6490804 759.53627513 596.35133421 764.23745384 601.05571556 768.93651009 C605.35453271 773.23049639 609.6510803 777.52673956 613.94576138 781.82486249 C615.50745825 783.38698536 617.07001769 784.94824642 618.63348275 786.50859957 C620.74330751 788.61446579 622.85009201 790.7233252 624.95607758 792.83302975 C625.57695926 793.45128442 626.19784095 794.06953909 626.83753723 794.70652875 C631 798.8858542 631 798.8858542 631 800 C422.77 800 214.54 800 0 800 C0 536 0 272 0 0 Z " fill="#CD1126" transform="translate(0,0)"/>
<path d="M0 0 C3.87451365 1.54980546 6.90370604 3.0398755 10.40234375 5.203125 C11.44600098 5.84644775 12.4896582 6.48977051 13.56494141 7.15258789 C14.67788574 7.84473389 15.79083008 8.53687988 16.9375 9.25 C18.10845381 9.97470154 19.2795165 10.69922718 20.45068359 11.42358398 C28.61162851 16.47938377 36.72392539 21.61010996 44.81274414 26.78051758 C54.48600546 32.9622829 64.22614899 39.03563676 73.96777344 45.10888672 C78.98090536 48.23543421 83.99029558 51.36796466 89 54.5 C95.05763112 58.28669989 101.1157505 62.07260999 107.17578125 65.85546875 C117.06279278 72.02857747 126.93984891 78.21625756 136.78955078 84.44873047 C147.16573779 91.00934125 157.58591151 97.49979935 168 104 C179.94654283 111.45671842 191.88909636 118.91862847 203.78955078 126.44873047 C213.14256726 132.3624154 222.5324913 138.21704024 231.91943359 144.07666016 C237.94373399 147.83790905 243.96553882 151.60315182 249.98779297 155.36767578 C255.04961403 158.53162365 260.11207148 161.69454438 265.17578125 164.85546875 C275.06279278 171.02857747 284.93984891 177.21625756 294.78955078 183.44873047 C304.14256726 189.3624154 313.5324913 195.21704024 322.91943359 201.07666016 C328.94373399 204.83790905 334.96553882 208.60315182 340.98779297 212.36767578 C346.04961403 215.53162365 351.11207148 218.69454438 356.17578125 221.85546875 C366.06279278 228.02857747 375.93984891 234.21625756 385.78955078 240.44873047 C395.14256726 246.3624154 404.5324913 252.21704024 413.91943359 258.07666016 C419.94373399 261.83790905 425.96553882 265.60315182 431.98779297 269.36767578 C437.04961403 272.53162365 442.11207148 275.69454438 447.17578125 278.85546875 C457.06279278 285.02857747 466.93984891 291.21625756 476.78955078 297.44873047 C487.16573779 304.00934125 497.58591151 310.49979935 508 317 C519.94654283 324.45671842 531.88909636 331.91862847 543.78955078 339.44873047 C553.14256726 345.3624154 562.5324913 351.21704024 571.91943359 357.07666016 C577.94373399 360.83790905 583.96553882 364.60315182 589.98779297 368.36767578 C595.04961403 371.53162365 600.11207148 374.69454438 605.17578125 377.85546875 C616.75683104 385.08605285 628.3310386 392.32688746 639.85888672 399.64208984 C641.29456306 400.55260658 642.73109742 401.46177173 644.16845703 402.36962891 C646.17706317 403.63873438 648.18270826 404.91238021 650.1875 406.1875 C650.78256348 406.56245605 651.37762695 406.93741211 651.99072266 407.32373047 C653.3447445 408.18887959 654.67547496 409.09033436 656 410 C656 410.33 656 410.66 656 411 C520.04 411.33 384.08 411.66 244 412 C271.9365625 439.92496094 299.873125 467.84992188 328.65625 496.62109375 C345.24088493 513.20092727 361.82548604 529.78079435 378.40945697 546.361292 C388.13168597 556.08147969 397.85393829 565.80164403 407.57626249 575.5217365 C408.75233025 576.69753442 409.92839728 577.87333307 411.10446356 579.04913247 C429.87091113 597.81130918 448.6389759 616.57186718 467.40788183 635.33158461 C486.68931966 654.60360011 505.96912766 673.8772446 525.24687085 693.15295586 C527.96641873 695.87221557 530.68598534 698.59145654 533.40556335 701.31068611 C533.94084259 701.84589792 534.47612183 702.38110974 535.02762165 702.93254009 C543.66254603 711.56628033 552.29919935 720.19828906 560.93649201 728.82965998 C569.60872269 737.49601817 578.27914944 746.16417775 586.9477092 754.83420783 C591.6490804 759.53627513 596.35133421 764.23745384 601.05571556 768.93651009 C605.35453271 773.23049639 609.6510803 777.52673956 613.94576138 781.82486249 C615.50745825 783.38698536 617.07001769 784.94824642 618.63348275 786.50859957 C620.74330751 788.61446579 622.85009201 790.7233252 624.95607758 792.83302975 C625.57695926 793.45128442 626.19784095 794.06953909 626.83753723 794.70652875 C631 798.8858542 631 798.8858542 631 800 C422.77 800 214.54 800 0 800 C0 536 0 272 0 0 Z M24 43 C24 284.89 24 526.78 24 776 C205.17 776 386.34 776 573 776 C568.883763 771.1977235 564.77701612 766.63426869 560.31149483 762.188447 C559.33620467 761.21142607 559.33620467 761.21142607 558.34121168 760.21466735 C556.16791659 758.03873121 553.99108168 755.86637211 551.8142395 753.69398499 C550.23729877 752.11660804 548.66057786 750.53901129 547.08405769 748.96121401 C542.75585907 744.63078032 538.42455015 740.30346932 534.09272718 735.97666156 C529.90021661 731.78802583 525.71006163 727.59703534 521.51984877 723.40610131 C512.95054852 714.83548856 504.37892662 706.26720132 495.80597305 697.700243 C487.31929488 689.2194845 478.83365395 680.73769038 470.34939194 672.25451469 C469.82160625 671.72679775 469.29382057 671.1990808 468.75004138 670.65537243 C466.06962333 667.97529272 463.38922375 665.29519453 460.7088313 662.61508923 C441.7300881 643.63844571 422.74902814 624.66412106 403.76660156 605.69116211 C385.32694988 587.26069672 366.88835873 568.82917137 348.45117188 550.39624023 C347.29151467 549.23685367 346.13185743 548.07746713 344.97220016 546.91808063 C335.54930517 537.49737446 326.12648331 528.07659516 316.70367917 518.65579813 C273.13907285 475.1005767 229.56912616 431.5507011 186 388 C377.07 387.505 377.07 387.505 572 387 C569.09211031 384.09211031 567.36286847 382.42283039 564.0078125 380.4765625 C562.84366821 379.79207031 562.84366821 379.79207031 561.65600586 379.09375 C560.82077393 378.6090625 559.98554199 378.124375 559.125 377.625 C551.64346681 373.21142379 544.25404155 368.68214677 536.9375 364 C536.01453125 363.40968994 535.0915625 362.81937988 534.140625 362.21118164 C532.30390187 361.03562071 530.46747112 359.85960281 528.63134766 358.68310547 C514.51647454 349.65472031 500.29376146 340.79565611 486.08056641 331.92333984 C480.05626601 328.16209095 474.03446118 324.39684818 468.01220703 320.63232422 C462.95038597 317.46837635 457.88792852 314.30545562 452.82421875 311.14453125 C442.93720722 304.97142253 433.06015109 298.78374244 423.21044922 292.55126953 C413.85743274 286.6375846 404.4675087 280.78295976 395.08056641 274.92333984 C389.05626601 271.16209095 383.03446118 267.39684818 377.01220703 263.63232422 C371.95038597 260.46837635 366.88792852 257.30545562 361.82421875 254.14453125 C351.93720722 247.97142253 342.06015109 241.78374244 332.21044922 235.55126953 C321.83426221 228.99065875 311.41408849 222.50020065 301 216 C289.05345717 208.54328158 277.11090364 201.08137153 265.21044922 193.55126953 C255.85743274 187.6375846 246.4675087 181.78295976 237.08056641 175.92333984 C231.05626601 172.16209095 225.03446118 168.39684818 219.01220703 164.63232422 C213.95038597 161.46837635 208.88792852 158.30545562 203.82421875 155.14453125 C193.93720722 148.97142253 184.06015109 142.78374244 174.21044922 136.55126953 C164.85743274 130.6375846 155.4675087 124.78295976 146.08056641 118.92333984 C140.05626601 115.16209095 134.03446118 111.39684818 128.01220703 107.63232422 C122.95038597 104.46837635 117.88792852 101.30545562 112.82421875 98.14453125 C102.93720722 91.97142253 93.06015109 85.78374244 83.21044922 79.55126953 C74.91166677 74.30415115 66.58336845 69.1044811 58.25390625 63.90625 C53.92450885 61.20405925 49.59956773 58.49489951 45.27734375 55.78125 C44.18446045 55.09587158 43.09157715 54.41049316 41.96557617 53.7043457 C39.86459209 52.38658475 37.76445662 51.06746958 35.6652832 49.74682617 C34.24542114 48.8570105 34.24542114 48.8570105 32.796875 47.94921875 C31.96510742 47.42674561 31.13333984 46.90427246 30.27636719 46.3659668 C28.24074413 45.14446197 26.12336248 44.06168124 24 43 Z " fill="#013791" transform="translate(0,0)"/>
<path d="M0 0 C0.66 0 1.32 0 2 0 C4.56853076 5.94265242 7.13145122 11.8877007 9.69042969 17.83447266 C10.56217583 19.85847088 11.43521918 21.8819109 12.30957031 23.90478516 C13.56394007 26.80747073 14.81367676 29.71211213 16.0625 32.6171875 C16.45622803 33.52556366 16.84995605 34.43393982 17.25561523 35.36984253 C17.61598877 36.21056305 17.9763623 37.05128357 18.34765625 37.91748047 C18.66742432 38.65916473 18.98719238 39.400849 19.31665039 40.16500854 C20 42 20 42 20 44 C29.45516051 37.38933316 38.67023989 30.49899537 47.80151367 23.44726562 C48.66236572 22.78533203 49.52321777 22.12339844 50.41015625 21.44140625 C51.17465088 20.85045166 51.93914551 20.25949707 52.72680664 19.65063477 C55.07519123 17.94540136 57.49121965 16.4565594 60 15 C59.22839178 25.27981274 57.80389518 35.47424278 56.4375 45.6875 C56.2009659 47.46807161 55.96463614 49.24867037 55.72851562 51.02929688 C55.15469873 55.35318123 54.57811904 59.67668884 54 64 C55.21276611 63.80035645 56.42553223 63.60071289 57.67504883 63.39501953 C67.03303861 61.86057716 76.40448057 60.50436512 85.8125 59.3125 C86.83150391 59.18125732 87.85050781 59.05001465 88.90039062 58.91479492 C93.62932334 58.32761648 98.22338761 57.82969633 103 58 C98.99065032 64.20324828 94.708826 70.08623213 90.125 75.875 C80.48358199 86.19411683 80.48358199 86.19411683 75 98 C79.19507195 99.76003249 83.39022568 101.51986988 87.58544922 103.27954102 C89.00702016 103.87584401 90.4285703 104.47219661 91.85009766 105.06860352 C100.56205689 108.72369156 109.27688665 112.37159135 118 116 C115.89846943 118.30995417 114.08111382 119.60039826 111.20288086 120.79345703 C110.44877426 121.11033478 109.69466766 121.42721252 108.91770935 121.75369263 C108.1082637 122.08505219 107.29881805 122.41641174 106.46484375 122.7578125 C105.63038223 123.1063327 104.79592072 123.45485291 103.93617249 123.81393433 C101.27279032 124.92460466 98.60530736 126.02500702 95.9375 127.125 C93.26712345 128.23443644 90.59759923 129.34590554 87.92811584 130.45748901 C86.26725335 131.14814629 84.60568128 131.83710012 82.94334412 132.52420044 C78.92929992 134.16762874 78.92929992 134.16762874 75 136 C76.36970882 138.91913844 77.94659657 141.43504888 79.87109375 144.01953125 C80.44069824 144.78797363 81.01030273 145.55641602 81.59716797 146.34814453 C82.20447754 147.16138184 82.81178711 147.97461914 83.4375 148.8125 C84.69931004 150.51425523 85.96102751 152.2160791 87.22265625 153.91796875 C88.17035889 155.19293213 88.17035889 155.19293213 89.13720703 156.49365234 C91.89076461 160.19850452 94.63615069 163.90926545 97.375 167.625 C98.07967407 168.57403198 98.07967407 168.57403198 98.79858398 169.54223633 C102 173.88627797 102 173.88627797 102 175 C91.98902755 175.41453302 82.26452078 173.865146 72.375 172.5 C70.58992532 172.25851087 68.80476956 172.01762028 67.01953125 171.77734375 C62.67872123 171.19179774 58.33909122 170.59814427 54 170 C54.11972168 170.57145752 54.23944336 171.14291504 54.36279297 171.73168945 C56.2117045 181.14896728 57.13329715 190.65126348 58.125 200.1875 C58.30821775 201.91996168 58.49180862 203.65238394 58.67578125 205.38476562 C59.12148826 209.58940191 59.56215018 213.79453855 60 218 C57.09829705 216.63653947 54.58836398 215.07360381 52.015625 213.1640625 C51.2522583 212.59961426 50.4888916 212.03516602 49.70239258 211.45361328 C48.89310303 210.8501709 48.08381348 210.24672852 47.25 209.625 C46.00029419 208.69856689 46.00029419 208.69856689 44.7253418 207.75341797 C36.79374932 201.8666245 28.89019432 195.94213255 21 190 C18.19993895 195.47038955 15.66876037 200.97585838 13.328125 206.65625 C12.83720367 207.83785706 12.83720367 207.83785706 12.33636475 209.04333496 C11.30487298 211.52777895 10.27737081 214.01384949 9.25 216.5 C8.54583752 218.19802642 7.84141283 219.89594413 7.13671875 221.59375 C5.4214484 225.72791737 3.70975083 229.86354707 2 234 C-0.61126983 232.69436508 -0.77325664 231.61107728 -1.87939453 228.93920898 C-2.41972824 227.64798378 -2.41972824 227.64798378 -2.97097778 226.33067322 C-3.35438324 225.39526199 -3.7377887 224.45985077 -4.1328125 223.49609375 C-4.52951141 222.54307877 -4.92621033 221.59006378 -5.33493042 220.60816956 C-6.60460463 217.55385724 -7.86488233 214.49576579 -9.125 211.4375 C-9.98245833 209.37018769 -10.8405234 207.30312692 -11.69921875 205.23632812 C-13.80653669 200.16045346 -15.90614604 195.08144236 -18 190 C-24.85273025 194.48927845 -24.85273025 194.48927845 -31.4296875 199.3671875 C-32.15744385 199.93937012 -32.8852002 200.51155273 -33.63500977 201.10107422 C-34.37420654 201.68646973 -35.11340332 202.27186523 -35.875 202.875 C-55.14988441 218 -55.14988441 218 -57 218 C-57.41453302 207.98902755 -55.865146 198.26452078 -54.5 188.375 C-54.25851087 186.58992532 -54.01762028 184.80476956 -53.77734375 183.01953125 C-53.19179774 178.67872123 -52.59814427 174.33909122 -52 170 C-53.64814697 170.22719727 -53.64814697 170.22719727 -55.32958984 170.45898438 C-59.44750184 171.02482086 -63.56657474 171.58178927 -67.68603516 172.13623047 C-69.4610981 172.37636519 -71.23584744 172.61883108 -73.01025391 172.86376953 C-91.15955016 175.36606418 -91.15955016 175.36606418 -100 175 C-95.63356392 168.2363657 -90.91203587 161.81299017 -86 155.4375 C-84.62473049 153.64473796 -83.24972645 151.85177224 -81.875 150.05859375 C-81.22273438 149.20894043 -80.57046875 148.35928711 -79.8984375 147.48388672 C-77.2413303 144.00736812 -74.61555804 140.50784476 -72 137 C-81.87888125 131.83355979 -92.02151278 127.56902487 -102.33911133 123.37548828 C-104.40944495 122.53204528 -106.47632243 121.68055435 -108.54296875 120.828125 C-109.76008545 120.3321582 -110.97720215 119.83619141 -112.23120117 119.32519531 C-115 118 -115 118 -116 116 C-114.80922852 115.49549316 -113.61845703 114.99098633 -112.39160156 114.47119141 C-107.97047943 112.59764781 -103.55007425 110.72241787 -99.12988281 108.84667969 C-97.21731747 108.03534729 -95.30455845 107.22447129 -93.39160156 106.4140625 C-90.64076411 105.24859866 -87.89062914 104.08149102 -85.140625 102.9140625 C-83.85916595 102.37176498 -83.85916595 102.37176498 -82.55181885 101.81851196 C-81.75129089 101.47831024 -80.95076294 101.13810852 -80.12597656 100.78759766 C-79.42426331 100.49003571 -78.72255005 100.19247375 -77.99957275 99.88589478 C-75.96555686 98.98474024 -73.9816976 98.01042764 -72 97 C-73.66545996 94.76992388 -75.33227421 92.54088124 -77 90.3125 C-77.52239258 89.61366699 -78.04478516 88.91483398 -78.58300781 88.19482422 C-81.81276235 83.88442343 -85.07136976 79.59819635 -88.359375 75.33203125 C-89.08769531 74.38481201 -89.81601563 73.43759277 -90.56640625 72.46166992 C-92.01296295 70.58247244 -93.46343979 68.70628558 -94.91796875 66.83325195 C-95.57925781 65.97304443 -96.24054688 65.11283691 -96.921875 64.2265625 C-97.51581055 63.45908691 -98.10974609 62.69161133 -98.72167969 61.90087891 C-100 60 -100 60 -100 58 C-83.88650876 59.31256735 -67.97027632 61.50277004 -52 64 C-52.17390259 62.77821045 -52.17390259 62.77821045 -52.35131836 61.53173828 C-54.4902708 46.37628217 -56.58477942 31.32163956 -57 16 C-53.82621987 17.45992078 -51.20259313 19.24956816 -48.4375 21.37890625 C-47.56327393 22.04921875 -46.68904785 22.71953125 -45.78833008 23.41015625 C-44.40810669 24.47556641 -44.40810669 24.47556641 -43 25.5625 C-41.10821289 27.01190147 -39.21628651 28.46112117 -37.32421875 29.91015625 C-34.84130064 31.81669048 -32.35894934 33.723955 -29.87744141 35.63232422 C-28.19238642 36.92589731 -26.50321159 38.21383608 -24.8125 39.5 C-23.91144531 40.1909375 -23.01039063 40.881875 -22.08203125 41.59375 C-20.14251247 43.18657105 -20.14251247 43.18657105 -18 43 C-15.5957612 37.35894973 -13.19304637 31.71725378 -10.79174805 26.07495117 C-9.97445978 24.15517593 -9.15675369 22.23557852 -8.33862305 20.31616211 C-7.16345358 17.55889669 -5.98978301 14.80099747 -4.81640625 12.04296875 C-4.44971329 11.18350143 -4.08302032 10.32403412 -3.70521545 9.43852234 C-3.19479958 8.23761711 -3.19479958 8.23761711 -2.67407227 7.01245117 C-2.3742897 6.3085173 -2.07450714 5.60458344 -1.76564026 4.87931824 C-1.11305412 3.27749934 -0.54696366 1.64089098 0 0 Z " fill="#FEFDFD" transform="translate(160,465)"/>
<path d="M0 0 C3.73129265 3.73129265 6.72098967 7.11358299 9.8125 11.3125 C10.21919922 11.86228516 10.62589844 12.41207031 11.04492188 12.97851562 C12.03368611 14.31625547 13.01738585 15.65773623 14 17 C20.89837372 8.794127 20.89837372 8.794127 27 0 C27.99 0.495 27.99 0.495 29 1 C29.80805798 3.77511882 30.50015609 6.49607392 31.125 9.3125 C31.30675781 10.08529297 31.48851562 10.85808594 31.67578125 11.65429688 C32.50349953 15.27323056 33 18.24345877 33 22 C33.5347998 21.66677734 34.06959961 21.33355469 34.62060547 20.99023438 C37.03590415 19.48887505 39.45537067 17.99436895 41.875 16.5 C42.71675781 15.97535156 43.55851563 15.45070312 44.42578125 14.91015625 C45.23144531 14.41386719 46.03710938 13.91757813 46.8671875 13.40625 C47.98262939 12.71499023 47.98262939 12.71499023 49.12060547 12.00976562 C51 11 51 11 53 11 C52.69305541 14.10474234 52.378486 17.20866586 52.0625 20.3125 C51.93198242 21.63411133 51.93198242 21.63411133 51.79882812 22.98242188 C51.66831055 24.25375977 51.66831055 24.25375977 51.53515625 25.55078125 C51.456604 26.33106689 51.37805176 27.11135254 51.29711914 27.9152832 C51 30 51 30 50 33 C51.15757812 32.7834375 52.31515625 32.566875 53.5078125 32.34375 C55.04682443 32.06222343 56.5858898 31.78098887 58.125 31.5 C58.88554687 31.35691406 59.64609375 31.21382813 60.4296875 31.06640625 C64.68042914 30.29687544 68.65859197 29.83355624 73 30 C72.45730469 30.94101562 71.91460937 31.88203125 71.35546875 32.8515625 C70.63272484 34.10932463 69.91007352 35.36713997 69.1875 36.625 C68.83107422 37.24246094 68.47464844 37.85992187 68.10742188 38.49609375 C65.94086828 42.27265506 63.9095701 46.08447772 62 50 C63.26457031 50.26554687 64.52914062 50.53109375 65.83203125 50.8046875 C67.49226 51.16112079 69.15241233 51.5179102 70.8125 51.875 C71.64587891 52.04902344 72.47925781 52.22304688 73.33789062 52.40234375 C74.14033203 52.57636719 74.94277344 52.75039063 75.76953125 52.9296875 C76.50792236 53.08679199 77.24631348 53.24389648 78.00708008 53.40576172 C80 54 80 54 83 56 C77.72 59.96 72.44 63.92 67 68 C68.13483924 71.40451771 68.55277937 71.6005564 71.5625 73.1875 C72.696875 73.785625 73.83125 74.38375 75 75 C96.92597252 62.87461811 111.13009608 43.03897951 122 21 C122.33 21 122.66 21 123 21 C124.23946675 46.06477203 113.4266937 69.81339529 98 89 C97.42507812 89.72960937 96.85015625 90.45921875 96.2578125 91.2109375 C84.4115556 105.55114323 67.27919302 115.6306187 50 122 C49.31437988 122.2582959 48.62875977 122.5165918 47.92236328 122.78271484 C26.89070551 130.37517743 0.18786508 129.65211063 -20.875 122.375 C-21.63256592 122.11557617 -22.39013184 121.85615234 -23.1706543 121.58886719 C-49.94398439 112.05277682 -71.36846698 92.33025504 -84 67 C-84.5053125 65.98679687 -85.010625 64.97359375 -85.53125 63.9296875 C-91.75509087 50.49762277 -96.38997931 34.91911129 -95 20 C-92.61160012 22.96635088 -91.02300191 25.92002569 -89.4375 29.375 C-80.42379316 47.64723042 -65.27719774 65.50619057 -47 75 C-44.48591085 74.2381548 -42.95836739 72.9681633 -40.875 71.375 C-39 70 -39 70 -37 70 C-37 69.34 -37 68.68 -37 68 C-37.68449219 67.77570313 -38.36898437 67.55140625 -39.07421875 67.3203125 C-42.76952662 65.65273699 -45.65484933 63.38844769 -48.8125 60.875 C-49.40998047 60.40707031 -50.00746094 59.93914062 -50.62304688 59.45703125 C-52.08616792 58.30994435 -53.54366297 57.15568766 -55 56 C-52.06933864 53.06933864 -48.48767051 52.75014124 -44.5625 51.875 C-43.78583984 51.69324219 -43.00917969 51.51148438 -42.20898438 51.32421875 C-39.03471741 50.59695345 -36.27228099 50 -33 50 C-33.62648437 48.97519531 -34.25296875 47.95039063 -34.8984375 46.89453125 C-35.72415522 45.53397364 -36.54966511 44.17328988 -37.375 42.8125 C-37.7875 42.13896484 -38.2 41.46542969 -38.625 40.77148438 C-40.74751558 37.26248684 -42.62665045 33.88612647 -44 30 C-40.70770134 30.30606349 -37.41630486 30.62094203 -34.125 30.9375 C-33.18785156 31.02451172 -32.25070313 31.11152344 -31.28515625 31.20117188 C-30.38925781 31.28818359 -29.49335937 31.37519531 -28.5703125 31.46484375 C-27.74289551 31.543396 -26.91547852 31.62194824 -26.06298828 31.70288086 C-24 32 -24 32 -22 33 C-22.2165625 31.74703125 -22.433125 30.4940625 -22.65625 29.203125 C-22.93767255 27.55211274 -23.21891303 25.90106943 -23.5 24.25 C-23.64308594 23.425 -23.78617187 22.6 -23.93359375 21.75 C-24.06894531 20.95078125 -24.20429687 20.1515625 -24.34375 19.328125 C-24.53227539 18.22839355 -24.53227539 18.22839355 -24.72460938 17.10644531 C-25 15 -25 15 -25 11 C-20.60629266 12.59618431 -16.70946133 14.78094401 -12.6875 17.125 C-9.3771875 19.043125 -9.3771875 19.043125 -6 21 C-4.02 14.07 -2.04 7.14 0 0 Z " fill="#FEFDFD" transform="translate(147,240)"/>
</svg>
