<?xml version="1.0" encoding="UTF-8"?>
<svg version="1.1" xmlns="http://www.w3.org/2000/svg" width="1200" height="632">
<path d="M0 0 C396 0 792 0 1200 0 C1200 208.56 1200 417.12 1200 632 C804 632 408 632 0 632 C0 423.44 0 214.88 0 0 Z " fill="#012664" transform="translate(0,0)"/>
<path d="M0 0 C396 0 792 0 1200 0 C1200 96.36 1200 192.72 1200 292 C804 292 408 292 0 292 C0 195.64 0 99.28 0 0 Z " fill="#BB143F" transform="translate(0,340)"/>
<path d="M0 0 C396 0 792 0 1200 0 C1200 48.18 1200 96.36 1200 146 C804 146 408 146 0 146 C0 97.82 0 49.64 0 0 Z " fill="#BB143F" transform="translate(0,340)"/>
<path d="M0 0 C237.6 0 475.2 0 720 0 C720 64.02 720 128.04 720 194 C482.4 194 244.8 194 0 194 C0 129.98 0 65.96 0 0 Z " fill="#BB143F" transform="translate(480,0)"/>
<path d="M0 0 C396 0 792 0 1200 0 C1200 16.17 1200 32.34 1200 49 C804 49 408 49 0 49 C0 32.83 0 16.66 0 0 Z " fill="#BB143F" transform="translate(0,583)"/>
<path d="M0 0 C396 0 792 0 1200 0 C1200 16.17 1200 32.34 1200 49 C804 49 408 49 0 49 C0 32.83 0 16.66 0 0 Z " fill="#FDFCFD" transform="translate(0,340)"/>
<path d="M0 0 C396 0 792 0 1200 0 C1200 15.84 1200 31.68 1200 48 C804 48 408 48 0 48 C0 32.16 0 16.32 0 0 Z " fill="#FEFEFE" transform="translate(0,535)"/>
<path d="M0 0 C396 0 792 0 1200 0 C1200 15.84 1200 31.68 1200 48 C804 48 408 48 0 48 C0 32.16 0 16.32 0 0 Z " fill="#FEFEFE" transform="translate(0,438)"/>
<path d="M0 0 C237.6 0 475.2 0 720 0 C720 16.17 720 32.34 720 49 C482.4 49 244.8 49 0 49 C0 32.83 0 16.66 0 0 Z " fill="#FEFCFD" transform="translate(480,243)"/>
<path d="M0 0 C237.6 0 475.2 0 720 0 C720 16.17 720 32.34 720 49 C482.4 49 244.8 49 0 49 C0 32.83 0 16.66 0 0 Z " fill="#BB143F" transform="translate(480,194)"/>
<path d="M0 0 C237.6 0 475.2 0 720 0 C720 15.84 720 31.68 720 48 C482.4 48 244.8 48 0 48 C0 32.16 0 16.32 0 0 Z " fill="#BA123D" transform="translate(480,292)"/>
<path d="M0 0 C237.6 0 475.2 0 720 0 C720 15.84 720 31.68 720 48 C482.4 48 244.8 48 0 48 C0 32.16 0 16.32 0 0 Z " fill="#FEFEFE" transform="translate(480,146)"/>
<path d="M0 0 C237.6 0 475.2 0 720 0 C720 15.84 720 31.68 720 48 C482.4 48 244.8 48 0 48 C0 32.16 0 16.32 0 0 Z " fill="#FEFEFE" transform="translate(480,49)"/>
<path d="M0 0 C2 1 2 1 3.125 4.3125 C4 8 4 8 4 12 C8.95 12 13.9 12 19 12 C15.39035432 15.60964568 13.23990184 17.698339 9 20 C9.15597656 20.60328125 9.31195313 21.2065625 9.47265625 21.828125 C9.66730469 22.62734375 9.86195313 23.4265625 10.0625 24.25 C10.35833984 25.43335938 10.35833984 25.43335938 10.66015625 26.640625 C11 29 11 29 10 33 C5.545 30.03 5.545 30.03 1 27 C-2.82229916 29.09144671 -5.99179418 30.83346756 -9 34 C-9.66 34 -10.32 34 -11 34 C-10.7834375 33.24074219 -10.566875 32.48148437 -10.34375 31.69921875 C-10.0653125 30.70535156 -9.786875 29.71148437 -9.5 28.6875 C-9.2215625 27.70136719 -8.943125 26.71523438 -8.65625 25.69921875 C-7.88187804 22.97712797 -7.88187804 22.97712797 -8 20 C-10.00105103 18.37682443 -10.00105103 18.37682443 -12.5 16.9375 C-15.03125 15.40234375 -15.03125 15.40234375 -17 14 C-17 13.34 -17 12.68 -17 12 C-10.565 11.505 -10.565 11.505 -4 11 C-2.68 7.37 -1.36 3.74 0 0 Z " fill="#EBEDF2" transform="translate(319,254)"/>
<path d="M0 0 C0.66 0 1.32 0 2 0 C2.50559908 1.43554025 3.0042749 2.8735202 3.5 4.3125 C3.7784375 5.11300781 4.056875 5.91351563 4.34375 6.73828125 C5 9 5 9 5 12 C9.62 12 14.24 12 19 12 C14.27696793 16.85422741 14.27696793 16.85422741 11.625 18.25 C9.79061326 19.84789872 9.79061326 19.84789872 9.90625 22.0078125 C10.30153415 26.28535165 11.11579806 30.10598265 13 34 C10.15921909 32.7500564 7.96609026 31.17602101 5.5625 29.25 C2.83838957 27.19760423 2.83838957 27.19760423 -0.5 27.375 C-3.75029257 29.48769017 -6.89047356 31.68309795 -10 34 C-9.00956295 29.16371695 -8.04301154 24.52381127 -6 20 C-6.515625 19.773125 -7.03125 19.54625 -7.5625 19.3125 C-10.90966116 17.51018245 -14.03890492 15.38717496 -17 13 C-17 12.67 -17 12.34 -17 12 C-12.38 12 -7.76 12 -3 12 C-2.690625 10.576875 -2.38125 9.15375 -2.0625 7.6875 C-1.48800637 5.04482928 -0.85697694 2.57093082 0 0 Z " fill="#ECEFF3" transform="translate(40,220)"/>
<path d="M0 0 C0.66 0 1.32 0 2 0 C2.50559908 1.43554025 3.0042749 2.8735202 3.5 4.3125 C3.7784375 5.11300781 4.056875 5.91351563 4.34375 6.73828125 C5 9 5 9 5 12 C9.62 12 14.24 12 19 12 C19 12.66 19 13.32 19 14 C17.1015625 15.5078125 17.1015625 15.5078125 14.625 17.125 C13.81289062 17.66382813 13.00078125 18.20265625 12.1640625 18.7578125 C10 20 10 20 8 20 C8.30035156 20.75925781 8.60070312 21.51851563 8.91015625 22.30078125 C9.29042969 23.29464844 9.67070312 24.28851563 10.0625 25.3125 C10.44535156 26.29863281 10.82820313 27.28476562 11.22265625 28.30078125 C12 31 12 31 11 34 C8.03 31.69 5.06 29.38 2 27 C-0.89511173 28.44755587 -3.53127396 29.90314017 -6.25 31.625 C-7.30960938 32.29402344 -7.30960938 32.29402344 -8.390625 32.9765625 C-8.92171875 33.31429687 -9.4528125 33.65203125 -10 34 C-9.36843005 28.94744036 -7.86540627 24.70406799 -6 20 C-6.70125 19.7525 -7.4025 19.505 -8.125 19.25 C-11.39514548 17.82819762 -14.141122 16.12753712 -17 14 C-17 13.34 -17 12.68 -17 12 C-12.38 12 -7.76 12 -3 12 C-2.690625 10.576875 -2.38125 9.15375 -2.0625 7.6875 C-1.48800637 5.04482928 -0.85697694 2.57093082 0 0 Z " fill="#EBEEF3" transform="translate(239,254)"/>
<path d="M0 0 C0.66 0 1.32 0 2 0 C2.99 3.96 3.98 7.92 5 12 C9.62 12 14.24 12 19 12 C13.35475578 17.80205656 13.35475578 17.80205656 10 20 C9.34 20 8.68 20 8 20 C8.30035156 20.75925781 8.60070312 21.51851562 8.91015625 22.30078125 C9.29042969 23.29464844 9.67070312 24.28851563 10.0625 25.3125 C10.44535156 26.29863281 10.82820313 27.28476563 11.22265625 28.30078125 C12 31 12 31 11 34 C10.40832031 33.47148437 9.81664062 32.94296875 9.20703125 32.3984375 C8.41683594 31.73070312 7.62664062 31.06296875 6.8125 30.375 C5.64654297 29.36566406 5.64654297 29.36566406 4.45703125 28.3359375 C2.0666408 26.67956091 2.0666408 26.67956091 -0.5625 27.625 C-2.7553975 28.8620191 -4.79483031 30.12163827 -6.8125 31.625 C-7.864375 32.40875 -8.91625 33.1925 -10 34 C-9.855625 33.360625 -9.71125 32.72125 -9.5625 32.0625 C-9.376875 31.051875 -9.19125 30.04125 -9 29 C-8.80019531 28.31035156 -8.60039062 27.62070313 -8.39453125 26.91015625 C-7.81456464 24.35917529 -7.53647753 22.58689682 -8 20 C-10.6671348 17.11283999 -13.7293753 15.14216355 -17 13 C-17 12.67 -17 12.34 -17 12 C-12.38 12 -7.76 12 -3 12 C-2.690625 10.576875 -2.38125 9.15375 -2.0625 7.6875 C-1.48800637 5.04482928 -0.85697694 2.57093082 0 0 Z " fill="#EDEFF3" transform="translate(438,220)"/>
<path d="M0 0 C2.90408342 3.87211123 3.85079464 6.40317854 5 11 C11.93 11.495 11.93 11.495 19 12 C15.72724974 15.27275026 12.85411644 17.54738045 9 20 C9.13277344 20.59167969 9.26554687 21.18335938 9.40234375 21.79296875 C9.57894531 22.58316406 9.75554687 23.37335938 9.9375 24.1875 C10.11152344 24.96480469 10.28554687 25.74210937 10.46484375 26.54296875 C11.00511333 29.02347652 11.50894372 31.50932716 12 34 C11.38511719 33.57847656 10.77023438 33.15695313 10.13671875 32.72265625 C9.32847656 32.17480469 8.52023438 31.62695312 7.6875 31.0625 C6.88699219 30.51722656 6.08648437 29.97195312 5.26171875 29.41015625 C2.9741857 27.86162674 2.9741857 27.86162674 0 27 C-2.05905902 28.20594512 -2.05905902 28.20594512 -4.0625 29.9375 C-7.80865604 33 -7.80865604 33 -10 33 C-9.855625 32.34 -9.71125 31.68 -9.5625 31 C-8.87700084 27.34400449 -8.43824485 23.69377805 -8 20 C-8.6496875 19.59007812 -9.299375 19.18015625 -9.96875 18.7578125 C-10.8040625 18.21898437 -11.639375 17.68015625 -12.5 17.125 C-13.3353125 16.59132812 -14.170625 16.05765625 -15.03125 15.5078125 C-15.6809375 15.01023438 -16.330625 14.51265625 -17 14 C-17 13.34 -17 12.68 -17 12 C-10.565 11.505 -10.565 11.505 -4 11 C-2.68 7.37 -1.36 3.74 0 0 Z " fill="#EDF0F4" transform="translate(120,220)"/>
<path d="M0 0 C3.2830098 3.2830098 3.19284362 7.50298589 4 12 C8.62 12 13.24 12 18 12 C18 12.66 18 13.32 18 14 C16.03125 15.5078125 16.03125 15.5078125 13.5 17.125 C12.6646875 17.66382813 11.829375 18.20265625 10.96875 18.7578125 C10.3190625 19.16773438 9.669375 19.57765625 9 20 C9.60825035 24.34464536 10.26167392 28.67551867 11 33 C7.4213696 31.34832443 4.25179812 29.21713508 1 27 C-1.86867231 28.38264837 -4.56024032 29.92148553 -7.25 31.625 C-8.30960938 32.29402344 -8.30960938 32.29402344 -9.390625 32.9765625 C-9.92171875 33.31429687 -10.4528125 33.65203125 -11 34 C-10.00956295 29.16371695 -9.04301154 24.52381127 -7 20 C-7.515625 19.773125 -8.03125 19.54625 -8.5625 19.3125 C-11.90966116 17.51018245 -15.03890492 15.38717496 -18 13 C-18 12.67 -18 12.34 -18 12 C-13.38 12 -8.76 12 -4 12 C-3.525625 10.205625 -3.05125 8.41125 -2.5625 6.5625 C-1.125 1.125 -1.125 1.125 0 0 Z " fill="#EDF0F4" transform="translate(200,220)"/>
<path d="M0 0 C2 1 2 1 2.8515625 3.50390625 C3.56770833 6.3359375 4.28385417 9.16796875 5 12 C9.62 12 14.24 12 19 12 C13.35475578 17.80205656 13.35475578 17.80205656 10 20 C9.34 20 8.68 20 8 20 C8.30035156 20.75925781 8.60070312 21.51851562 8.91015625 22.30078125 C9.29042969 23.29464844 9.67070312 24.28851563 10.0625 25.3125 C10.44535156 26.29863281 10.82820313 27.28476563 11.22265625 28.30078125 C12 31 12 31 11 34 C10.40832031 33.47148437 9.81664062 32.94296875 9.20703125 32.3984375 C8.41683594 31.73070312 7.62664062 31.06296875 6.8125 30.375 C5.64654297 29.36566406 5.64654297 29.36566406 4.45703125 28.3359375 C2.05498596 26.67124538 2.05498596 26.67124538 -0.6328125 27.65625 C-3.32864494 29.18655752 -5.59579356 31.05064343 -8 33 C-8.66 33 -9.32 33 -10 33 C-9.84402344 32.40832031 -9.68804687 31.81664062 -9.52734375 31.20703125 C-7.75389409 25.0162011 -7.75389409 25.0162011 -9 19 C-11.02741696 17.53599154 -13.08445368 16.30065505 -15.28515625 15.11328125 C-15.85105469 14.74589844 -16.41695313 14.37851563 -17 14 C-17 13.34 -17 12.68 -17 12 C-12.38 12 -7.76 12 -3 12 C-2.01 8.04 -1.02 4.08 0 0 Z " fill="#EEF0F4" transform="translate(279,220)"/>
<path d="M0 0 C3.30439099 4.40585465 3.86678482 6.76977608 5 12 C9.62 12 14.24 12 19 12 C15.72724974 15.27275026 12.85411644 17.54738045 9 20 C9.13277344 20.59167969 9.26554687 21.18335938 9.40234375 21.79296875 C9.57894531 22.58316406 9.75554687 23.37335938 9.9375 24.1875 C10.11152344 24.96480469 10.28554688 25.74210937 10.46484375 26.54296875 C11.00511333 29.02347652 11.50894372 31.50932716 12 34 C11.38511719 33.57847656 10.77023437 33.15695313 10.13671875 32.72265625 C9.32847656 32.17480469 8.52023437 31.62695312 7.6875 31.0625 C6.88699219 30.51722656 6.08648437 29.97195312 5.26171875 29.41015625 C2.9741857 27.86162674 2.9741857 27.86162674 0 27 C-2.8057554 28.43117031 -2.8057554 28.43117031 -5.6875 30.4375 C-6.68136719 31.09621094 -7.67523438 31.75492188 -8.69921875 32.43359375 C-9.45847656 32.95050781 -10.21773438 33.46742188 -11 34 C-10.77183594 33.25234375 -10.54367187 32.5046875 -10.30859375 31.734375 C-10.02113281 30.74953125 -9.73367188 29.7646875 -9.4375 28.75 C-9.14746094 27.77546875 -8.85742188 26.8009375 -8.55859375 25.796875 C-7.99019576 22.95091022 -7.79978577 21.61713381 -9 19 C-10.83785603 17.26675348 -10.83785603 17.26675348 -13.0625 15.8125 C-14.38746868 14.89270628 -15.70365218 13.9597108 -17 13 C-17 12.67 -17 12.34 -17 12 C-10.565 11.505 -10.565 11.505 -4 11 C-2.68 7.37 -1.36 3.74 0 0 Z " fill="#EEF0F4" transform="translate(319,186)"/>
<path d="M0 0 C3.106467 3.106467 3.69089782 6.83467488 5 11 C9.29 11.33 13.58 11.66 18 12 C18 12.66 18 13.32 18 14 C16.03125 15.5078125 16.03125 15.5078125 13.5 17.125 C12.6646875 17.66382813 11.829375 18.20265625 10.96875 18.7578125 C10.3190625 19.16773438 9.669375 19.57765625 9 20 C9.60825035 24.34464536 10.26167392 28.67551867 11 33 C7.22272911 31.18690997 3.62730178 29.0926741 0 27 C-4.455 29.97 -4.455 29.97 -9 33 C-10.03103689 28.87585243 -9.94701684 28.0158858 -8.5625 24.25 C-8.27503906 23.45078125 -7.98757812 22.6515625 -7.69140625 21.828125 C-7.46324219 21.22484375 -7.23507813 20.6215625 -7 20 C-7.59296875 19.71125 -8.1859375 19.4225 -8.796875 19.125 C-11.71292884 17.63595123 -14.35306944 15.92504041 -17 14 C-17 13.34 -17 12.68 -17 12 C-12.38 12 -7.76 12 -3 12 C-2.87625 10.7625 -2.7525 9.525 -2.625 8.25 C-2.24253695 5.1237803 -1.69450477 2.71120763 0 0 Z " fill="#EDEFF3" transform="translate(160,254)"/>
<path d="M0 0 C3.106467 3.106467 3.69089782 6.83467488 5 11 C9.29 11.33 13.58 11.66 18 12 C18 12.66 18 13.32 18 14 C16.03125 15.5078125 16.03125 15.5078125 13.5 17.125 C12.6646875 17.66382813 11.829375 18.20265625 10.96875 18.7578125 C10.3190625 19.16773438 9.669375 19.57765625 9 20 C9.51958285 24.37934119 10.05675742 28.68803391 11 33 C9.33984375 32.0234375 7.6796875 31.046875 6.01953125 30.0703125 C5.35308594 29.71710938 4.68664062 29.36390625 4 29 C3.195625 28.5565625 2.39125 28.113125 1.5625 27.65625 C-1.06423353 26.67376727 -1.06423353 26.67376727 -3.45703125 28.3359375 C-4.23433594 29.00882813 -5.01164062 29.68171875 -5.8125 30.375 C-6.60269531 31.04273438 -7.39289063 31.71046875 -8.20703125 32.3984375 C-8.79871094 32.92695313 -9.39039063 33.45546875 -10 34 C-11 32 -11 32 -10.44140625 29.94140625 C-10.15136719 29.15636719 -9.86132812 28.37132812 -9.5625 27.5625 C-8.53164355 24.75653648 -8 23.02703646 -8 20 C-10.2264202 18.11399964 -10.2264202 18.11399964 -13 16.375 C-14.67953625 15.2693053 -16.34990704 14.14917188 -18 13 C-18 12.67 -18 12.34 -18 12 C-13.38 12 -8.76 12 -4 12 C-3.525625 10.205625 -3.05125 8.41125 -2.5625 6.5625 C-1.125 1.125 -1.125 1.125 0 0 Z " fill="#EEF0F4" transform="translate(359,220)"/>
<path d="M0 0 C2.38041123 3.57061685 3.54551059 6.96709754 5 11 C9.29 11.33 13.58 11.66 18 12 C15.14723863 14.93200474 12.34920216 17.64315404 9 20 C9.13277344 20.59167969 9.26554687 21.18335938 9.40234375 21.79296875 C9.57894531 22.58316406 9.75554687 23.37335938 9.9375 24.1875 C10.11152344 24.96480469 10.28554687 25.74210937 10.46484375 26.54296875 C11.00511333 29.02347652 11.50894372 31.50932716 12 34 C11.39671875 33.57847656 10.7934375 33.15695313 10.171875 32.72265625 C9.37265625 32.17480469 8.5734375 31.62695312 7.75 31.0625 C6.56664062 30.24458984 6.56664062 30.24458984 5.359375 29.41015625 C2.36513988 27.58294382 2.36513988 27.58294382 -1 27 C-3.45105884 28.40797932 -3.45105884 28.40797932 -5.75 30.4375 C-6.54921875 31.09621094 -7.3484375 31.75492188 -8.171875 32.43359375 C-9.07679688 33.20896484 -9.07679688 33.20896484 -10 34 C-11 32 -11 32 -10.44140625 29.94140625 C-10.15136719 29.15636719 -9.86132812 28.37132812 -9.5625 27.5625 C-8.53164355 24.75653648 -8 23.02703646 -8 20 C-10.00105103 18.37682443 -10.00105103 18.37682443 -12.5 16.9375 C-15.03125 15.40234375 -15.03125 15.40234375 -17 14 C-17 13.34 -17 12.68 -17 12 C-12.71 12 -8.42 12 -4 12 C-3.525625 10.205625 -3.05125 8.41125 -2.5625 6.5625 C-1.125 1.125 -1.125 1.125 0 0 Z " fill="#EEF1F5" transform="translate(160,186)"/>
<path d="M0 0 C3.106467 3.106467 3.69089782 6.83467488 5 11 C9.29 11.33 13.58 11.66 18 12 C15.14723863 14.93200474 12.34920216 17.64315404 9 20 C9.13277344 20.59167969 9.26554687 21.18335938 9.40234375 21.79296875 C9.57894531 22.58316406 9.75554687 23.37335938 9.9375 24.1875 C10.11152344 24.96480469 10.28554688 25.74210937 10.46484375 26.54296875 C11.00511333 29.02347652 11.50894372 31.50932716 12 34 C11.39671875 33.57847656 10.7934375 33.15695313 10.171875 32.72265625 C9.37265625 32.17480469 8.5734375 31.62695312 7.75 31.0625 C6.56664062 30.24458984 6.56664062 30.24458984 5.359375 29.41015625 C2.36513988 27.58294382 2.36513988 27.58294382 -1 27 C-3.45105884 28.40797932 -3.45105884 28.40797932 -5.75 30.4375 C-6.54921875 31.09621094 -7.3484375 31.75492188 -8.171875 32.43359375 C-9.07679688 33.20896484 -9.07679688 33.20896484 -10 34 C-11.49341969 31.01316063 -10.40648676 29.04839022 -9.5625 25.875 C-9.27503906 24.77929688 -8.98757813 23.68359375 -8.69140625 22.5546875 C-8.46324219 21.71164063 -8.23507812 20.86859375 -8 20 C-8.6496875 19.50628906 -9.299375 19.01257813 -9.96875 18.50390625 C-10.8040625 17.86324219 -11.639375 17.22257812 -12.5 16.5625 C-13.3353125 15.92441406 -14.170625 15.28632813 -15.03125 14.62890625 C-16.00578125 13.82259766 -16.00578125 13.82259766 -17 13 C-17 12.67 -17 12.34 -17 12 C-12.71 12 -8.42 12 -4 12 C-3.525625 10.205625 -3.05125 8.41125 -2.5625 6.5625 C-1.125 1.125 -1.125 1.125 0 0 Z " fill="#EFF1F5" transform="translate(359,152)"/>
<path d="M0 0 C0.66 0 1.32 0 2 0 C2.99 3.96 3.98 7.92 5 12 C9.62 12 14.24 12 19 12 C16.14723863 14.93200474 13.34920216 17.64315404 10 20 C10.60825035 24.34464536 11.26167392 28.67551867 12 33 C9.38284942 31.79208435 7.37709024 30.52287763 5.0625 28.75 C2.22026608 26.69136663 2.22026608 26.69136663 -0.4375 27.4375 C-3.7637737 29.46571567 -6.87503952 31.67159807 -10 34 C-9.86722656 33.40832031 -9.73445313 32.81664062 -9.59765625 32.20703125 C-9.42105469 31.41683594 -9.24445313 30.62664062 -9.0625 29.8125 C-8.88847656 29.03519531 -8.71445312 28.25789063 -8.53515625 27.45703125 C-7.99488667 24.97652348 -7.49105628 22.49067284 -7 20 C-7.721875 19.50628906 -8.44375 19.01257813 -9.1875 18.50390625 C-10.5796875 17.54291016 -10.5796875 17.54291016 -12 16.5625 C-12.928125 15.92441406 -13.85625 15.28632813 -14.8125 14.62890625 C-15.8953125 13.82259766 -15.8953125 13.82259766 -17 13 C-17 12.67 -17 12.34 -17 12 C-12.38 11.67 -7.76 11.34 -3 11 C-2.01 7.37 -1.02 3.74 0 0 Z " fill="#EFF1F5" transform="translate(398,186)"/>
<path d="M0 0 C3.97097416 3.36172881 4.06494135 7.0369964 5 12 C9.62 12 14.24 12 19 12 C15.72724974 15.27275026 12.85411644 17.54738045 9 20 C9.34224609 21.13888672 9.34224609 21.13888672 9.69140625 22.30078125 C10.12259766 23.79158203 10.12259766 23.79158203 10.5625 25.3125 C10.85253906 26.29863281 11.14257812 27.28476563 11.44140625 28.30078125 C12 31 12 31 11 34 C10.40832031 33.47148437 9.81664062 32.94296875 9.20703125 32.3984375 C8.41683594 31.73070312 7.62664062 31.06296875 6.8125 30.375 C5.64654297 29.36566406 5.64654297 29.36566406 4.45703125 28.3359375 C2.06423353 26.67376727 2.06423353 26.67376727 -0.5625 27.65625 C-1.366875 28.0996875 -2.17125 28.543125 -3 29 C-3.66644531 29.35320312 -4.33289063 29.70640625 -5.01953125 30.0703125 C-5.61121094 30.41835937 -6.20289063 30.76640625 -6.8125 31.125 C-7.864375 31.74375 -8.91625 32.3625 -10 33 C-9.84402344 32.40832031 -9.68804687 31.81664062 -9.52734375 31.20703125 C-7.76767614 25.02213439 -7.76767614 25.02213439 -9 19 C-11.01505937 17.26492782 -13.08835984 15.73236622 -15.28515625 14.234375 C-15.85105469 13.82703125 -16.41695313 13.4196875 -17 13 C-17 12.67 -17 12.34 -17 12 C-12.38 12 -7.76 12 -3 12 C-2.87625 10.948125 -2.7525 9.89625 -2.625 8.8125 C-2.08859218 5.54041229 -1.36119965 2.99463924 0 0 Z " fill="#EFF2F5" transform="translate(279,152)"/>
<path d="M0 0 C0.66 0 1.32 0 2 0 C2.50833591 1.24663331 3.00631145 2.49749387 3.5 3.75 C3.7784375 4.44609375 4.056875 5.1421875 4.34375 5.859375 C5 8 5 8 5 12 C9.62 12 14.24 12 19 12 C16.14723863 14.93200474 13.34920216 17.64315404 10 20 C10.51958285 24.37934119 11.05675742 28.68803391 12 33 C5.25 29.25 5.25 29.25 3 27 C-0.49194589 27.35068687 -2.91262732 29.10137477 -5.75 31.0625 C-6.54921875 31.61035156 -7.3484375 32.15820312 -8.171875 32.72265625 C-9.07679688 33.35494141 -9.07679688 33.35494141 -10 34 C-9.86722656 33.40832031 -9.73445312 32.81664062 -9.59765625 32.20703125 C-9.42105469 31.41683594 -9.24445313 30.62664062 -9.0625 29.8125 C-8.88847656 29.03519531 -8.71445313 28.25789063 -8.53515625 27.45703125 C-7.99488667 24.97652348 -7.49105628 22.49067284 -7 20 C-7.721875 19.50628906 -8.44375 19.01257813 -9.1875 18.50390625 C-10.5796875 17.54291016 -10.5796875 17.54291016 -12 16.5625 C-12.928125 15.92441406 -13.85625 15.28632813 -14.8125 14.62890625 C-15.8953125 13.82259766 -15.8953125 13.82259766 -17 13 C-17 12.67 -17 12.34 -17 12 C-12.38 12 -7.76 12 -3 12 C-2.01 8.04 -1.02 4.08 0 0 Z " fill="#EFF1F5" transform="translate(199,152)"/>
<path d="M0 0 C0.66 0 1.32 0 2 0 C2.50559908 1.43554025 3.0042749 2.8735202 3.5 4.3125 C3.7784375 5.11300781 4.056875 5.91351563 4.34375 6.73828125 C5 9 5 9 5 12 C9.62 12 14.24 12 19 12 C13.35475578 17.80205656 13.35475578 17.80205656 10 20 C9.34 20 8.68 20 8 20 C8.28875 20.77085937 8.5775 21.54171875 8.875 22.3359375 C9.24625 23.33882812 9.6175 24.34171875 10 25.375 C10.556875 26.87160156 10.556875 26.87160156 11.125 28.3984375 C12 31 12 31 12 33 C9.38284942 31.79208435 7.37709024 30.52287763 5.0625 28.75 C2.19918666 26.6715276 2.19918666 26.6715276 -0.5625 27.5 C-3.22701404 29.13970094 -5.57210099 31.03143323 -8 33 C-8.66 33 -9.32 33 -10 33 C-9.52343588 31.20763933 -9.04366502 29.41613103 -8.5625 27.625 C-8.29566406 26.62726563 -8.02882812 25.62953125 -7.75390625 24.6015625 C-7 22 -7 22 -6 20 C-6.515625 19.773125 -7.03125 19.54625 -7.5625 19.3125 C-10.90966116 17.51018245 -14.03890492 15.38717496 -17 13 C-17 12.67 -17 12.34 -17 12 C-12.38 12 -7.76 12 -3 12 C-2.690625 10.576875 -2.38125 9.15375 -2.0625 7.6875 C-1.48800637 5.04482928 -0.85697694 2.57093082 0 0 Z " fill="#EFF2F5" transform="translate(239,186)"/>
<path d="M0 0 C0.66 0 1.32 0 2 0 C2.50559908 1.43554025 3.0042749 2.8735202 3.5 4.3125 C3.7784375 5.11300781 4.056875 5.91351563 4.34375 6.73828125 C5 9 5 9 5 12 C9.62 12 14.24 12 19 12 C15.72724974 15.27275026 12.85411644 17.54738045 9 20 C9.2165625 20.68707031 9.433125 21.37414062 9.65625 22.08203125 C9.9346875 22.98308594 10.213125 23.88414062 10.5 24.8125 C10.7784375 25.70582031 11.056875 26.59914062 11.34375 27.51953125 C12 30 12 30 12 33 C9.38284942 31.79208435 7.37709024 30.52287763 5.0625 28.75 C2.19918666 26.6715276 2.19918666 26.6715276 -0.5625 27.5 C-3.22701404 29.13970094 -5.57210099 31.03143323 -8 33 C-8.66 33 -9.32 33 -10 33 C-9.68817931 31.58318366 -9.37551263 30.16655349 -9.0625 28.75 C-8.88847656 27.96109375 -8.71445312 27.1721875 -8.53515625 26.359375 C-8.052444 24.23121297 -7.53836822 22.11467158 -7 20 C-7.721875 19.50628906 -8.44375 19.01257813 -9.1875 18.50390625 C-10.5796875 17.54291016 -10.5796875 17.54291016 -12 16.5625 C-12.928125 15.92441406 -13.85625 15.28632813 -14.8125 14.62890625 C-15.8953125 13.82259766 -15.8953125 13.82259766 -17 13 C-17 12.67 -17 12.34 -17 12 C-12.38 12 -7.76 12 -3 12 C-2.01 8.04 -1.02 4.08 0 0 Z " fill="#F0F2F5" transform="translate(438,152)"/>
<path d="M0 0 C0.66 0 1.32 0 2 0 C2.99 3.63 3.98 7.26 5 11 C11.93 11.495 11.93 11.495 19 12 C15.88983545 15.28788824 12.98381075 17.83735988 9 20 C9.34224609 21.13888672 9.34224609 21.13888672 9.69140625 22.30078125 C10.12259766 23.79158203 10.12259766 23.79158203 10.5625 25.3125 C10.85253906 26.29863281 11.14257812 27.28476563 11.44140625 28.30078125 C12 31 12 31 11 34 C10.40832031 33.47148437 9.81664063 32.94296875 9.20703125 32.3984375 C8.41683594 31.73070312 7.62664062 31.06296875 6.8125 30.375 C5.64654297 29.36566406 5.64654297 29.36566406 4.45703125 28.3359375 C2.05498596 26.67124538 2.05498596 26.67124538 -0.6328125 27.65625 C-3.32864494 29.18655752 -5.59579356 31.05064343 -8 33 C-8.66 33 -9.32 33 -10 33 C-9.71517632 31.58194169 -9.42181856 30.16559621 -9.125 28.75 C-8.96257812 27.96109375 -8.80015625 27.1721875 -8.6328125 26.359375 C-8.00849925 24.03168856 -7.15161458 22.10968048 -6 20 C-6.515625 19.773125 -7.03125 19.54625 -7.5625 19.3125 C-10.90966116 17.51018245 -14.03890492 15.38717496 -17 13 C-17 12.67 -17 12.34 -17 12 C-12.38 12 -7.76 12 -3 12 C-2.01 8.04 -1.02 4.08 0 0 Z " fill="#EFF2F5" transform="translate(80,186)"/>
<path d="M0 0 C2 1 2 1 2.8515625 3.50390625 C3.56770833 6.3359375 4.28385417 9.16796875 5 12 C9.29 12 13.58 12 18 12 C15.14723863 14.93200474 12.34920216 17.64315404 9 20 C9.90723613 24.68738665 10.9547267 29.34193744 12 34 C11.39671875 33.57847656 10.7934375 33.15695313 10.171875 32.72265625 C9.37265625 32.17480469 8.5734375 31.62695312 7.75 31.0625 C6.56664062 30.24458984 6.56664062 30.24458984 5.359375 29.41015625 C2.36158947 27.6102333 2.36158947 27.6102333 -1 27 C-3.21765724 28.17939922 -3.21765724 28.17939922 -5.25 29.9375 C-5.95640625 30.50339844 -6.6628125 31.06929687 -7.390625 31.65234375 C-7.92171875 32.09707031 -8.4528125 32.54179687 -9 33 C-10.07310858 29.72814447 -9.89263102 27.57052408 -9.0625 24.25 C-8.86785156 23.45078125 -8.67320313 22.6515625 -8.47265625 21.828125 C-8.31667969 21.22484375 -8.16070312 20.6215625 -8 20 C-8.6496875 19.50628906 -9.299375 19.01257813 -9.96875 18.50390625 C-10.8040625 17.86324219 -11.639375 17.22257812 -12.5 16.5625 C-13.3353125 15.92441406 -14.170625 15.28632813 -15.03125 14.62890625 C-16.00578125 13.82259766 -16.00578125 13.82259766 -17 13 C-17 12.67 -17 12.34 -17 12 C-10.565 11.505 -10.565 11.505 -4 11 C-2.68 7.37 -1.36 3.74 0 0 Z " fill="#F0F2F6" transform="translate(120,152)"/>
<path d="M0 0 C0.66 0 1.32 0 2 0 C2.99 3.96 3.98 7.92 5 12 C9.62 12 14.24 12 19 12 C15.88983545 15.28788824 12.98381075 17.83735988 9 20 C9.2165625 20.68707031 9.433125 21.37414062 9.65625 22.08203125 C9.9346875 22.98308594 10.213125 23.88414062 10.5 24.8125 C10.7784375 25.70582031 11.056875 26.59914062 11.34375 27.51953125 C12 30 12 30 12 33 C9.38284942 31.79208435 7.37709024 30.52287763 5.0625 28.75 C2.19918666 26.6715276 2.19918666 26.6715276 -0.5625 27.5 C-3.22701404 29.13970094 -5.57210099 31.03143323 -8 33 C-8.66 33 -9.32 33 -10 33 C-9.68817931 31.58318366 -9.37551263 30.16655349 -9.0625 28.75 C-8.88847656 27.96109375 -8.71445312 27.1721875 -8.53515625 26.359375 C-8.052444 24.23121297 -7.53836822 22.11467158 -7 20 C-7.721875 19.50628906 -8.44375 19.01257813 -9.1875 18.50390625 C-10.5796875 17.54291016 -10.5796875 17.54291016 -12 16.5625 C-12.928125 15.92441406 -13.85625 15.28632813 -14.8125 14.62890625 C-15.8953125 13.82259766 -15.8953125 13.82259766 -17 13 C-17 12.67 -17 12.34 -17 12 C-12.38 12 -7.76 12 -3 12 C-2.690625 10.576875 -2.38125 9.15375 -2.0625 7.6875 C-1.48800637 5.04482928 -0.85697694 2.57093082 0 0 Z " fill="#F0F2F6" transform="translate(40,152)"/>
<path d="M0 0 C0.66 0 1.32 0 2 0 C2.50512244 1.60256108 3.00391627 3.20711792 3.5 4.8125 C3.7784375 5.70582031 4.056875 6.59914063 4.34375 7.51953125 C5 10 5 10 5 13 C9.29 13 13.58 13 18 13 C14.82418312 16.44802976 12.39309313 18.41996314 8 20 C8.30035156 20.84304688 8.60070312 21.68609375 8.91015625 22.5546875 C9.29042969 23.65039062 9.67070313 24.74609375 10.0625 25.875 C10.63677734 27.51082031 10.63677734 27.51082031 11.22265625 29.1796875 C12 32 12 32 11 34 C10.40832031 33.47148437 9.81664063 32.94296875 9.20703125 32.3984375 C8.41683594 31.73070312 7.62664062 31.06296875 6.8125 30.375 C5.64654297 29.36566406 5.64654297 29.36566406 4.45703125 28.3359375 C2.06249871 26.67840032 2.06249871 26.67840032 -0.59375 27.625 C-2.71122995 28.83498854 -4.49048835 30.01485017 -6.3125 31.625 C-7.199375 32.40875 -8.08625 33.1925 -9 34 C-9.66 33.67 -10.32 33.34 -11 33 C-10.77183594 32.40832031 -10.54367188 31.81664062 -10.30859375 31.20703125 C-9.09219518 27.86329886 -8.05535604 24.81188866 -7.8125 21.25 C-9.52287414 18.00929111 -12.11397189 16.82427176 -15.28515625 15.11328125 C-15.85105469 14.74589844 -16.41695312 14.37851562 -17 14 C-17 13.34 -17 12.68 -17 12 C-12.38 12 -7.76 12 -3 12 C-2.690625 10.576875 -2.38125 9.15375 -2.0625 7.6875 C-1.48800637 5.04482928 -0.85697694 2.57093082 0 0 Z " fill="#EEF1F5" transform="translate(80,254)"/>
<path d="M0 0 C3.28177013 3.28177013 3.75405911 7.58257321 5 12 C9.29 12.33 13.58 12.66 18 13 C15.14723863 15.93200474 12.34920216 18.64315404 9 21 C9.13277344 21.59167969 9.26554687 22.18335938 9.40234375 22.79296875 C9.57894531 23.58316406 9.75554687 24.37335938 9.9375 25.1875 C10.11152344 25.96480469 10.28554687 26.74210937 10.46484375 27.54296875 C11.00511333 30.02347652 11.50894372 32.50932716 12 35 C11.39671875 34.57847656 10.7934375 34.15695313 10.171875 33.72265625 C9.37265625 33.17480469 8.5734375 32.62695312 7.75 32.0625 C6.56664062 31.24458984 6.56664062 31.24458984 5.359375 30.41015625 C2.36158947 28.6102333 2.36158947 28.6102333 -1 28 C-3.21765724 29.17939922 -3.21765724 29.17939922 -5.25 30.9375 C-5.95640625 31.50339844 -6.6628125 32.06929687 -7.390625 32.65234375 C-7.92171875 33.09707031 -8.4528125 33.54179687 -9 34 C-9.66 33.67 -10.32 33.34 -11 33 C-10.01 29.04 -9.02 25.08 -8 21 C-9.485 19.865625 -10.97 18.73125 -12.5 17.5625 C-14.02032761 16.40113863 -15.52596883 15.21958532 -17 14 C-17 13.67 -17 13.34 -17 13 C-12.71 13 -8.42 13 -4 13 C-3.525625 11.411875 -3.05125 9.82375 -2.5625 8.1875 C-1.74279395 5.44326671 -0.90577506 2.71732519 0 0 Z " fill="#F1F3F6" transform="translate(160,117)"/>
<path d="M0 0 C0.66 0 1.32 0 2 0 C2.50559908 1.43554025 3.0042749 2.8735202 3.5 4.3125 C3.7784375 5.11300781 4.056875 5.91351563 4.34375 6.73828125 C5 9 5 9 5 12 C9.62 12 14.24 12 19 12 C19 12.66 19 13.32 19 14 C17.03125 15.5078125 17.03125 15.5078125 14.5 17.125 C13.6646875 17.66382813 12.829375 18.20265625 11.96875 18.7578125 C11.3190625 19.16773438 10.669375 19.57765625 10 20 C10.59619955 24.86896303 11.56976822 29.32790951 13 34 C8.95579349 32.22054913 5.53921513 29.60470327 2 27 C-0.86867231 28.38264837 -3.56024032 29.92148553 -6.25 31.625 C-7.30960937 32.29402344 -7.30960937 32.29402344 -8.390625 32.9765625 C-8.92171875 33.31429687 -9.4528125 33.65203125 -10 34 C-9.00956295 29.16371695 -8.04301154 24.52381127 -6 20 C-6.721875 19.773125 -7.44375 19.54625 -8.1875 19.3125 C-11.53209313 17.75168987 -13.51603959 15.6968713 -16 13 C-11.71 13 -7.42 13 -3 13 C-2.690625 11.5975 -2.38125 10.195 -2.0625 8.75 C-1.41650906 5.82150775 -0.73989213 2.90624297 0 0 Z " fill="#EFF1F5" transform="translate(398,254)"/>
<path d="M0 0 C2.74710511 4.12065766 3.63965531 8.23879359 5 13 C9.29 13 13.58 13 18 13 C15.10492782 15.97549085 12.33810482 18.49642139 9 21 C10.485 27.435 10.485 27.435 12 34 C7 32 7 32 4.4375 29.8125 C2.24849362 27.75065814 2.24849362 27.75065814 0.11328125 28.2265625 C-2.24038302 29.08797752 -4.14978303 30.19735897 -6.25 31.5625 C-6.95640625 32.01753906 -7.6628125 32.47257812 -8.390625 32.94140625 C-8.92171875 33.29074219 -9.4528125 33.64007813 -10 34 C-9.39174965 29.65535464 -8.73832608 25.32448133 -8 21 C-8.6496875 20.50628906 -9.299375 20.01257813 -9.96875 19.50390625 C-10.8040625 18.86324219 -11.639375 18.22257812 -12.5 17.5625 C-13.3353125 16.92441406 -14.170625 16.28632813 -15.03125 15.62890625 C-16.00578125 14.82259766 -16.00578125 14.82259766 -17 14 C-17 13.67 -17 13.34 -17 13 C-10.565 12.505 -10.565 12.505 -4 12 C-2.68 8.04 -1.36 4.08 0 0 Z " fill="#F1F3F6" transform="translate(319,117)"/>
<path d="M0 0 C3.28177013 3.28177013 3.75405911 7.58257321 5 12 C9.29 12.33 13.58 12.66 18 13 C14.87378374 16.39417765 12.43458973 18.6062718 8 20 C8.34224609 21.01320313 8.34224609 21.01320313 8.69140625 22.046875 C8.97886719 22.93890625 9.26632812 23.8309375 9.5625 24.75 C9.85253906 25.63171875 10.14257812 26.5134375 10.44140625 27.421875 C11.01697435 30.07834316 10.89248371 31.47031106 10 34 C9.22076172 33.33291016 9.22076172 33.33291016 8.42578125 32.65234375 C4.36115341 29.16734655 4.36115341 29.16734655 -0.625 27.8125 C-3.87026035 29.43513017 -6.25732023 31.62301087 -9 34 C-9.66 34 -10.32 34 -11 34 C-10.01 29.71 -9.02 25.42 -8 21 C-9.485 19.865625 -10.97 18.73125 -12.5 17.5625 C-14.02032761 16.40113863 -15.52596883 15.21958532 -17 14 C-17 13.67 -17 13.34 -17 13 C-12.71 13 -8.42 13 -4 13 C-3.2884375 10.0609375 -3.2884375 10.0609375 -2.5625 7.0625 C-1.125 1.125 -1.125 1.125 0 0 Z " fill="#F1F3F6" transform="translate(359,83)"/>
<path d="M0 0 C3.97097416 3.36172881 4.06494135 7.0369964 5 12 C9.29 12 13.58 12 18 12 C15.14723863 14.93200474 12.34920216 17.64315404 9 20 C9.309375 21.216875 9.61875 22.43375 9.9375 23.6875 C10.71157177 26.7782972 11.41262688 29.86734334 12 33 C9.40899946 31.8041536 7.32633188 30.50878367 5 28.8125 C2.2997921 26.763227 2.2997921 26.763227 0.046875 27.2265625 C-2.19287651 28.07288082 -3.83722507 29.1279188 -5.75 30.5625 C-6.67039062 31.24505859 -6.67039062 31.24505859 -7.609375 31.94140625 C-8.06828125 32.29074219 -8.5271875 32.64007813 -9 33 C-10.24153433 29.275397 -9.47452539 28.52247731 -8 25 C-7.62406934 23.0075675 -7.28020455 21.0081326 -7 19 C-7.721875 18.773125 -8.44375 18.54625 -9.1875 18.3125 C-12.53209313 16.75168987 -14.51603959 14.6968713 -17 12 C-12.38 12 -7.76 12 -3 12 C-2.87625 10.948125 -2.7525 9.89625 -2.625 8.8125 C-2.08859218 5.54041229 -1.36119965 2.99463924 0 0 Z " fill="#F1F3F6" transform="translate(80,118)"/>
<path d="M0 0 C0.66 0 1.32 0 2 0 C2.50559908 1.43554025 3.0042749 2.8735202 3.5 4.3125 C3.7784375 5.11300781 4.056875 5.91351563 4.34375 6.73828125 C5 9 5 9 5 12 C9.62 12 14.24 12 19 12 C15.72724974 15.27275026 12.85411644 17.54738045 9 20 C10.485 26.435 10.485 26.435 12 33 C8 31 8 31 5.0625 28.75 C2.19918666 26.6715276 2.19918666 26.6715276 -0.5625 27.5 C-3.22701404 29.13970094 -5.57210099 31.03143323 -8 33 C-8.66 33 -9.32 33 -10 33 C-9.68817931 31.58318366 -9.37551263 30.16655349 -9.0625 28.75 C-8.88847656 27.96109375 -8.71445313 27.1721875 -8.53515625 26.359375 C-8.052444 24.23121297 -7.53836822 22.11467158 -7 20 C-7.721875 19.50628906 -8.44375 19.01257813 -9.1875 18.50390625 C-10.5796875 17.54291016 -10.5796875 17.54291016 -12 16.5625 C-12.928125 15.92441406 -13.85625 15.28632813 -14.8125 14.62890625 C-15.8953125 13.82259766 -15.8953125 13.82259766 -17 13 C-17 12.67 -17 12.34 -17 12 C-12.38 12 -7.76 12 -3 12 C-2.690625 10.576875 -2.38125 9.15375 -2.0625 7.6875 C-1.48800637 5.04482928 -0.85697694 2.57093082 0 0 Z " fill="#F2F4F7" transform="translate(239,118)"/>
<path d="M0 0 C3.45854519 3.45854519 4 7.21904213 4 12 C8.62 12 13.24 12 18 12 C13 17 13 17 10 19 C9.34 19 8.68 19 8 19 C8.4640625 20.794375 8.4640625 20.794375 8.9375 22.625 C9.80031573 26.06402439 10.47370486 29.49136573 11 33 C4.25 29.25 4.25 29.25 2 27 C-2.96878079 27.13802169 -5.42124105 29.89840891 -9 33 C-9.66 33 -10.32 33 -11 33 C-10.01 28.71 -9.02 24.42 -8 20 C-9.485 18.865625 -10.97 17.73125 -12.5 16.5625 C-14.02032761 15.40113863 -15.52596883 14.21958532 -17 13 C-17 12.67 -17 12.34 -17 12 C-12.71 12 -8.42 12 -4 12 C-3.71125 10.576875 -3.4225 9.15375 -3.125 7.6875 C-2.4619099 4.41941308 -1.90318884 2.85478326 0 0 Z " fill="#F2F4F7" transform="translate(399,118)"/>
<path d="M0 0 C2.87579981 4.31369972 4 7.80734761 4 13 C8.62 13 13.24 13 18 13 C13 18 13 18 10 20 C9.34 20 8.68 20 8 20 C8.13277344 20.59167969 8.26554687 21.18335937 8.40234375 21.79296875 C8.57894531 22.58316406 8.75554687 23.37335938 8.9375 24.1875 C9.11152344 24.96480469 9.28554687 25.74210937 9.46484375 26.54296875 C10.00511333 29.02347652 10.50894372 31.50932716 11 34 C10.11248047 33.33291016 10.11248047 33.33291016 9.20703125 32.65234375 C8.41683594 32.08644531 7.62664062 31.52054688 6.8125 30.9375 C6.03519531 30.36902344 5.25789063 29.80054687 4.45703125 29.21484375 C2.06662486 27.78008916 2.06662486 27.78008916 -0.6015625 28.15625 C-3.01718529 29.00604564 -4.33991373 29.82388664 -6.1875 31.5625 C-9 34 -9 34 -11 34 C-10.65775391 32.98679687 -10.65775391 32.98679687 -10.30859375 31.953125 C-10.02113281 31.06109375 -9.73367187 30.1690625 -9.4375 29.25 C-9.14746094 28.36828125 -8.85742188 27.4865625 -8.55859375 26.578125 C-7.9616583 23.8230383 -7.84697993 22.55692877 -9 20 C-10.83785603 18.26675348 -10.83785603 18.26675348 -13.0625 16.8125 C-14.38746868 15.89270628 -15.70365218 14.9597108 -17 14 C-17 13.67 -17 13.34 -17 13 C-12.71 13 -8.42 13 -4 13 C-3.71125 11.5975 -3.4225 10.195 -3.125 8.75 C-2.46276373 5.53342384 -1.57554035 2.88628401 0 0 Z " fill="#F2F4F7" transform="translate(200,83)"/>
<path d="M0 0 C3.44587588 3.44587588 3.81292163 8.35960275 5 13 C9.29 13 13.58 13 18 13 C15.10492782 15.97549085 12.33810482 18.49642139 9 21 C10.485 27.435 10.485 27.435 12 34 C8 32 8 32 5 29.8125 C2.30409356 27.76482246 2.30409356 27.76482246 0.078125 28.2265625 C-2.25410339 29.09457231 -4.16449945 30.20692464 -6.25 31.5625 C-6.95640625 32.01753906 -7.6628125 32.47257812 -8.390625 32.94140625 C-8.92171875 33.29074219 -9.4528125 33.64007813 -10 34 C-9.40380045 29.13103697 -8.43023178 24.67209049 -7 20 C-7.721875 19.773125 -8.44375 19.54625 -9.1875 19.3125 C-12.53209313 17.75168987 -14.51603959 15.6968713 -17 13 C-10.565 12.505 -10.565 12.505 -4 12 C-2.68 8.04 -1.36 4.08 0 0 Z " fill="#F2F4F7" transform="translate(120,83)"/>
<path d="M0 0 C0.66 0 1.32 0 2 0 C2.50757862 1.41396902 3.00574925 2.83131729 3.5 4.25 C3.7784375 5.03890625 4.056875 5.8278125 4.34375 6.640625 C5 9 5 9 5 13 C9.62 13 14.24 13 19 13 C15.88742431 16.11257569 13.71872691 17.9340406 10 20 C10.144375 21.010625 10.28875 22.02125 10.4375 23.0625 C11.21875 28.53125 11.21875 28.53125 12 34 C11.39671875 33.566875 10.7934375 33.13375 10.171875 32.6875 C9.37265625 32.130625 8.5734375 31.57375 7.75 31 C6.96109375 30.443125 6.1721875 29.88625 5.359375 29.3125 C2.86738917 27.67591051 2.86738917 27.67591051 -1 28 C-3.1976539 29.28640246 -3.1976539 29.28640246 -5.25 31 C-6.30960937 31.8353125 -6.30960937 31.8353125 -7.390625 32.6875 C-7.92171875 33.120625 -8.4528125 33.55375 -9 34 C-10.45047396 31.09905209 -9.45356803 29.44027404 -8.5625 26.375 C-8.27503906 25.37210938 -7.98757813 24.36921875 -7.69140625 23.3359375 C-7.46324219 22.56507812 -7.23507812 21.79421875 -7 21 C-7.6496875 20.50628906 -8.299375 20.01257813 -8.96875 19.50390625 C-9.8040625 18.86324219 -10.639375 18.22257812 -11.5 17.5625 C-12.3353125 16.92441406 -13.170625 16.28632812 -14.03125 15.62890625 C-15.00578125 14.82259766 -15.00578125 14.82259766 -16 14 C-16 13.67 -16 13.34 -16 13 C-11.71 13 -7.42 13 -3 13 C-2.690625 11.5975 -2.38125 10.195 -2.0625 8.75 C-1.41650906 5.82150775 -0.73989213 2.90624297 0 0 Z " fill="#F1F3F6" transform="translate(398,49)"/>
<path d="M0 0 C0.66 0 1.32 0 2 0 C2.50512244 1.60256108 3.00391627 3.20711792 3.5 4.8125 C3.7784375 5.70582031 4.056875 6.59914063 4.34375 7.51953125 C5 10 5 10 5 13 C9.29 13 13.58 13 18 13 C15.10492782 15.97549085 12.33810482 18.49642139 9 21 C10.485 27.435 10.485 27.435 12 34 C5.25 30.25 5.25 30.25 3 28 C-2.05229955 28.14859705 -5.94546921 31.27350411 -10 34 C-9.855625 33.32453125 -9.71125 32.6490625 -9.5625 31.953125 C-9.2840625 30.61507812 -9.2840625 30.61507812 -9 29.25 C-8.814375 28.36828125 -8.62875 27.4865625 -8.4375 26.578125 C-7.88846325 23.77856035 -7.88846325 23.77856035 -8 20 C-9.74364411 18.24533584 -9.74364411 18.24533584 -12 16.8125 C-13.34422229 15.89068089 -14.68066857 14.95710428 -16 14 C-16 13.67 -16 13.34 -16 13 C-11.71 13 -7.42 13 -3 13 C-2.87625 11.96875 -2.7525 10.9375 -2.625 9.875 C-2.06110186 6.37883154 -1.21317941 3.31602373 0 0 Z " fill="#F1F3F6" transform="translate(80,49)"/>
<path d="M0 0 C3.28177013 3.28177013 3.75405911 7.58257321 5 12 C9.29 12.33 13.58 12.66 18 13 C13 18 13 18 10 20 C9.34 20 8.68 20 8 20 C9.32 24.62 10.64 29.24 12 34 C8 32 8 32 5.0625 29.8125 C2.23423912 27.80253977 2.23423912 27.80253977 -0.5 27.9375 C-3.92374134 29.39259007 -6.1892513 31.5640178 -9 34 C-9.66 34 -10.32 34 -11 34 C-10.52188823 32.22888156 -10.0424722 30.45811517 -9.5625 28.6875 C-9.29566406 27.70136719 -9.02882812 26.71523437 -8.75390625 25.69921875 C-8.21920575 23.78482474 -7.62855462 21.88566385 -7 20 C-7.721875 19.773125 -8.44375 19.54625 -9.1875 19.3125 C-12.53209313 17.75168987 -14.51603959 15.6968713 -17 13 C-12.71 13 -8.42 13 -4 13 C-3.525625 11.411875 -3.05125 9.82375 -2.5625 8.1875 C-1.74279395 5.44326671 -0.90577506 2.71732519 0 0 Z " fill="#F2F4F7" transform="translate(160,49)"/>
<path d="M0 0 C3.97097416 3.36172881 4.06494135 7.0369964 5 12 C9.29 12 13.58 12 18 12 C15.10492782 14.97549085 12.33810482 17.49642139 9 20 C10.485 26.435 10.485 26.435 12 33 C8 31 8 31 5 28.8125 C2.30409356 26.76482246 2.30409356 26.76482246 0.078125 27.2265625 C-2.25410339 28.09457231 -4.16449945 29.20692464 -6.25 30.5625 C-6.95640625 31.01753906 -7.6628125 31.47257812 -8.390625 31.94140625 C-8.92171875 32.29074219 -9.4528125 32.64007813 -10 33 C-9.09276387 28.31261335 -8.0452733 23.65806256 -7 19 C-7.59296875 18.71253906 -8.1859375 18.42507812 -8.796875 18.12890625 C-11.69929883 16.64167135 -14.33605812 14.87686814 -17 13 C-17 12.67 -17 12.34 -17 12 C-12.38 12 -7.76 12 -3 12 C-2.87625 10.948125 -2.7525 9.89625 -2.625 8.8125 C-2.08859218 5.54041229 -1.36119965 2.99463924 0 0 Z " fill="#F3F5F7" transform="translate(279,84)"/>
<path d="M0 0 C2.74710511 4.12065766 3.63965531 8.23879359 5 13 C9.29 13 13.58 13 18 13 C14.82418312 16.44802976 12.39309313 18.41996314 8 20 C8.28875 20.84304687 8.5775 21.68609375 8.875 22.5546875 C9.24625 23.65039062 9.6175 24.74609375 10 25.875 C10.556875 27.51082031 10.556875 27.51082031 11.125 29.1796875 C12 32 12 32 12 34 C9.4140158 32.80646883 7.368576 31.52979064 5.0625 29.8125 C2.23423912 27.80253977 2.23423912 27.80253977 -0.5 27.9375 C-3.95083632 29.40410544 -6.22379597 31.48204751 -9 34 C-9.66 33.67 -10.32 33.34 -11 33 C-9.68 28.71 -8.36 24.42 -7 20 C-8.32 19.34 -9.64 18.68 -11 18 C-13.02951535 16.71203834 -15.03501678 15.38442 -17 14 C-17 13.67 -17 13.34 -17 13 C-12.38 13 -7.76 13 -3 13 C-2.87625 11.783125 -2.7525 10.56625 -2.625 9.3125 C-2.21108694 5.93520941 -1.45426549 3.10243305 0 0 Z " fill="#F2F4F7" transform="translate(319,49)"/>
<path d="M0 0 C3.28177013 3.28177013 3.75405911 7.58257321 5 12 C9.29 12.33 13.58 12.66 18 13 C14.88742431 16.11257569 12.71872691 17.9340406 9 20 C9.51405169 24.96916636 10.23384882 29.29026351 12 34 C9.13132769 32.61735163 6.43975968 31.07851447 3.75 29.375 C3.04359375 28.92898438 2.3371875 28.48296875 1.609375 28.0234375 C1.07828125 27.68570312 0.5471875 27.34796875 0 27 C-0.62648438 27.5053125 -1.25296875 28.010625 -1.8984375 28.53125 C-2.71570313 29.1809375 -3.53296875 29.830625 -4.375 30.5 C-5.18710937 31.1496875 -5.99921875 31.799375 -6.8359375 32.46875 C-9 34 -9 34 -11 34 C-10.52188823 32.22888156 -10.0424722 30.45811517 -9.5625 28.6875 C-9.29566406 27.70136719 -9.02882813 26.71523438 -8.75390625 25.69921875 C-8.21920575 23.78482474 -7.62855462 21.88566385 -7 20 C-7.53625 19.7525 -8.0725 19.505 -8.625 19.25 C-11.57161419 17.69915043 -14.27917566 15.91694442 -17 14 C-17 13.67 -17 13.34 -17 13 C-12.71 13 -8.42 13 -4 13 C-3.2884375 10.0609375 -3.2884375 10.0609375 -2.5625 7.0625 C-1.125 1.125 -1.125 1.125 0 0 Z " fill="#F1F3F6" transform="translate(359,288)"/>
<path d="M0 0 C0.66 0 1.32 0 2 0 C2.99 4.29 3.98 8.58 5 13 C9.62 13 14.24 13 19 13 C15.72724974 16.27275026 12.85411644 18.54738045 9 21 C9.22816406 21.68707031 9.45632812 22.37414062 9.69140625 23.08203125 C9.97886719 23.98308594 10.26632813 24.88414063 10.5625 25.8125 C10.85253906 26.70582031 11.14257812 27.59914063 11.44140625 28.51953125 C12 31 12 31 11 34 C10.22076172 33.33291016 10.22076172 33.33291016 9.42578125 32.65234375 C5.36115341 29.16734655 5.36115341 29.16734655 0.375 27.8125 C-2.87026035 29.43513017 -5.25732023 31.62301087 -8 34 C-8.66 34 -9.32 34 -10 34 C-9.68817931 32.58318366 -9.37551263 31.16655349 -9.0625 29.75 C-8.88847656 28.96109375 -8.71445312 28.1721875 -8.53515625 27.359375 C-8.052444 25.23121297 -7.53836822 23.11467158 -7 21 C-7.6496875 20.50628906 -8.299375 20.01257813 -8.96875 19.50390625 C-9.8040625 18.86324219 -10.639375 18.22257812 -11.5 17.5625 C-12.3353125 16.92441406 -13.170625 16.28632812 -14.03125 15.62890625 C-15.00578125 14.82259766 -15.00578125 14.82259766 -16 14 C-16 13.67 -16 13.34 -16 13 C-11.71 13 -7.42 13 -3 13 C-2.67 11.02 -2.34 9.04 -2 7 C-1.40346332 4.63997899 -0.6998627 2.33287568 0 0 Z " fill="#F3F5F7" transform="translate(40,83)"/>
<path d="M0 0 C3.28177013 3.28177013 3.75405911 7.58257321 5 12 C9.29 12.33 13.58 12.66 18 13 C14.88742431 16.11257569 12.71872691 17.9340406 9 20 C9.51405169 24.96916636 10.23384882 29.29026351 12 34 C9.13132769 32.61735163 6.43975968 31.07851447 3.75 29.375 C3.04359375 28.92898437 2.3371875 28.48296875 1.609375 28.0234375 C1.07828125 27.68570313 0.5471875 27.34796875 0 27 C-0.62648438 27.5053125 -1.25296875 28.010625 -1.8984375 28.53125 C-2.71570313 29.1809375 -3.53296875 29.830625 -4.375 30.5 C-5.18710937 31.1496875 -5.99921875 31.799375 -6.8359375 32.46875 C-9 34 -9 34 -11 34 C-10.52188823 32.22888156 -10.0424722 30.45811517 -9.5625 28.6875 C-9.29566406 27.70136719 -9.02882813 26.71523438 -8.75390625 25.69921875 C-8.21920575 23.78482474 -7.62855462 21.88566385 -7 20 C-7.53625 19.7525 -8.0725 19.505 -8.625 19.25 C-11.57161419 17.69915043 -14.27917566 15.91694442 -17 14 C-17 13.67 -17 13.34 -17 13 C-12.71 13 -8.42 13 -4 13 C-3.2884375 10.0609375 -3.2884375 10.0609375 -2.5625 7.0625 C-1.125 1.125 -1.125 1.125 0 0 Z " fill="#F1F3F6" transform="translate(359,15)"/>
<path d="M0 0 C0.66 0 1.32 0 2 0 C2.50512244 1.60256108 3.00391627 3.20711792 3.5 4.8125 C3.7784375 5.70582031 4.056875 6.59914063 4.34375 7.51953125 C5 10 5 10 5 13 C9.29 13 13.58 13 18 13 C15.14021487 15.93922361 12.31192213 18.58682597 9 21 C9.22816406 21.68707031 9.45632813 22.37414062 9.69140625 23.08203125 C9.97886719 23.98308594 10.26632812 24.88414063 10.5625 25.8125 C10.85253906 26.70582031 11.14257812 27.59914063 11.44140625 28.51953125 C12 31 12 31 11 34 C10.22076172 33.33291016 10.22076172 33.33291016 9.42578125 32.65234375 C5.41280873 29.19946023 5.41280873 29.19946023 0.5 27.8125 C-3.20019405 29.57009217 -6.60385005 31.71623663 -10 34 C-9.68817931 32.58318366 -9.37551263 31.16655349 -9.0625 29.75 C-8.88847656 28.96109375 -8.71445312 28.1721875 -8.53515625 27.359375 C-8.052444 25.23121297 -7.53836822 23.11467158 -7 21 C-7.721875 20.50628906 -8.44375 20.01257813 -9.1875 19.50390625 C-10.5796875 18.54291016 -10.5796875 18.54291016 -12 17.5625 C-12.928125 16.92441406 -13.85625 16.28632812 -14.8125 15.62890625 C-15.8953125 14.82259766 -15.8953125 14.82259766 -17 14 C-17 13.67 -17 13.34 -17 13 C-12.38 13 -7.76 13 -3 13 C-2.01 8.71 -1.02 4.42 0 0 Z " fill="#F4F5F8" transform="translate(438,83)"/>
<path d="M0 0 C0.66 0 1.32 0 2 0 C2.50512244 1.60256108 3.00391627 3.20711792 3.5 4.8125 C3.7784375 5.70582031 4.056875 6.59914063 4.34375 7.51953125 C5 10 5 10 5 13 C9.29 13 13.58 13 18 13 C15 16 12 19 9 22 C9.34224609 22.92232422 9.34224609 22.92232422 9.69140625 23.86328125 C9.97886719 24.67152344 10.26632812 25.47976563 10.5625 26.3125 C10.85253906 27.11300781 11.14257812 27.91351563 11.44140625 28.73828125 C12 31 12 31 11 34 C8.03 31.69 5.06 29.38 2 27 C-0.89511173 28.44755587 -3.53127396 29.90314017 -6.25 31.625 C-7.30960937 32.29402344 -7.30960937 32.29402344 -8.390625 32.9765625 C-8.92171875 33.31429687 -9.4528125 33.65203125 -10 34 C-9.68817931 32.58318366 -9.37551263 31.16655349 -9.0625 29.75 C-8.88847656 28.96109375 -8.71445312 28.1721875 -8.53515625 27.359375 C-8.052444 25.23121297 -7.53836822 23.11467158 -7 21 C-7.6496875 20.50628906 -8.299375 20.01257813 -8.96875 19.50390625 C-9.8040625 18.86324219 -10.639375 18.22257812 -11.5 17.5625 C-12.3353125 16.92441406 -13.170625 16.28632813 -14.03125 15.62890625 C-15.00578125 14.82259766 -15.00578125 14.82259766 -16 14 C-16 13.67 -16 13.34 -16 13 C-11.71 13 -7.42 13 -3 13 C-2.87625 11.96875 -2.7525 10.9375 -2.625 9.875 C-2.06110186 6.37883154 -1.21317941 3.31602373 0 0 Z " fill="#F3F5F7" transform="translate(438,288)"/>
<path d="M0 0 C2 1 2 1 2.8515625 2.9609375 C3.10679687 3.75757813 3.36203125 4.55421875 3.625 5.375 C4.01558594 6.56222656 4.01558594 6.56222656 4.4140625 7.7734375 C5 10 5 10 5 13 C9.29 13 13.58 13 18 13 C14.82418312 16.44802976 12.39309313 18.41996314 8 20 C8.30035156 20.84304688 8.60070312 21.68609375 8.91015625 22.5546875 C9.29042969 23.65039062 9.67070312 24.74609375 10.0625 25.875 C10.63677734 27.51082031 10.63677734 27.51082031 11.22265625 29.1796875 C12 32 12 32 11 34 C8.03 31.69 5.06 29.38 2 27 C-0.89511173 28.44755587 -3.53127396 29.90314017 -6.25 31.625 C-7.30960937 32.29402344 -7.30960937 32.29402344 -8.390625 32.9765625 C-8.92171875 33.31429687 -9.4528125 33.65203125 -10 34 C-9.33333333 29.33333333 -8.66666667 24.66666667 -8 20 C-8.86625 19.36771484 -8.86625 19.36771484 -9.75 18.72265625 C-10.4925 18.17480469 -11.235 17.62695312 -12 17.0625 C-13.11375 16.24458984 -13.11375 16.24458984 -14.25 15.41015625 C-14.8275 14.94480469 -15.405 14.47945313 -16 14 C-16 13.67 -16 13.34 -16 13 C-10.06 12.505 -10.06 12.505 -4 12 C-2.68 8.04 -1.36 4.08 0 0 Z " fill="#F3F5F7" transform="translate(279,288)"/>
<path d="M0 0 C2.5693511 3.85402665 3.59312655 7.58753327 5 12 C8.96 12.33 12.92 12.66 17 13 C14.42215154 15.64752004 12.08351902 17.94432065 9 20 C9.144375 21.010625 9.28875 22.02125 9.4375 23.0625 C10.21875 28.53125 10.21875 28.53125 11 34 C10.39671875 33.566875 9.7934375 33.13375 9.171875 32.6875 C8.37265625 32.130625 7.5734375 31.57375 6.75 31 C5.96109375 30.443125 5.1721875 29.88625 4.359375 29.3125 C1.86738917 27.67591051 1.86738917 27.67591051 -2 28 C-4.41795268 29.29009392 -4.41795268 29.29009392 -6.75 31 C-7.54921875 31.556875 -8.3484375 32.11375 -9.171875 32.6875 C-9.77515625 33.120625 -10.3784375 33.55375 -11 34 C-10.52188823 32.22888156 -10.0424722 30.45811517 -9.5625 28.6875 C-9.29566406 27.70136719 -9.02882812 26.71523438 -8.75390625 25.69921875 C-8.21920575 23.78482474 -7.62855462 21.88566385 -7 20 C-7.721875 19.773125 -8.44375 19.54625 -9.1875 19.3125 C-12.53209313 17.75168987 -14.51603959 15.6968713 -17 13 C-12.71 13 -8.42 13 -4 13 C-3.71125 11.5975 -3.4225 10.195 -3.125 8.75 C-2.46276373 5.53342384 -1.57554035 2.88628401 0 0 Z " fill="#F3F5F7" transform="translate(200,288)"/>
<path d="M0 0 C0.66 0 1.32 0 2 0 C2.50757862 1.41396902 3.00574925 2.83131729 3.5 4.25 C3.7784375 5.03890625 4.056875 5.8278125 4.34375 6.640625 C5 9 5 9 5 13 C9.29 13 13.58 13 18 13 C15.14021487 15.93922361 12.31192213 18.58682597 9 21 C9.22816406 21.68707031 9.45632812 22.37414062 9.69140625 23.08203125 C9.97886719 23.98308594 10.26632813 24.88414062 10.5625 25.8125 C10.85253906 26.70582031 11.14257812 27.59914063 11.44140625 28.51953125 C12 31 12 31 11 34 C8.03 31.69 5.06 29.38 2 27 C-0.89511173 28.44755587 -3.53127396 29.90314017 -6.25 31.625 C-7.30960938 32.29402344 -7.30960938 32.29402344 -8.390625 32.9765625 C-8.92171875 33.31429687 -9.4528125 33.65203125 -10 34 C-9.68817931 32.58318366 -9.37551263 31.16655349 -9.0625 29.75 C-8.88847656 28.96109375 -8.71445312 28.1721875 -8.53515625 27.359375 C-8.052444 25.23121297 -7.53836822 23.11467158 -7 21 C-7.6496875 20.50628906 -8.299375 20.01257813 -8.96875 19.50390625 C-9.8040625 18.86324219 -10.639375 18.22257812 -11.5 17.5625 C-12.3353125 16.92441406 -13.170625 16.28632813 -14.03125 15.62890625 C-15.00578125 14.82259766 -15.00578125 14.82259766 -16 14 C-16 13.67 -16 13.34 -16 13 C-11.71 13 -7.42 13 -3 13 C-2.690625 11.411875 -2.38125 9.82375 -2.0625 8.1875 C-1.51076205 5.35524518 -0.91407022 2.74221066 0 0 Z " fill="#F3F5F7" transform="translate(40,288)"/>
<path d="M0 0 C0.66 0 1.32 0 2 0 C2.50310058 1.7907985 3.00238628 3.58266911 3.5 5.375 C3.7784375 6.37273438 4.056875 7.37046875 4.34375 8.3984375 C5 11 5 11 5 13 C9.29 13 13.58 13 18 13 C15 16 12 19 9 22 C9.34224609 22.92232422 9.34224609 22.92232422 9.69140625 23.86328125 C9.97886719 24.67152344 10.26632813 25.47976562 10.5625 26.3125 C10.85253906 27.11300781 11.14257812 27.91351563 11.44140625 28.73828125 C12 31 12 31 11 34 C8.03 31.69 5.06 29.38 2 27 C-0.89511173 28.44755587 -3.53127396 29.90314017 -6.25 31.625 C-7.30960938 32.29402344 -7.30960938 32.29402344 -8.390625 32.9765625 C-8.92171875 33.31429687 -9.4528125 33.65203125 -10 34 C-9.68817931 32.58318366 -9.37551263 31.16655349 -9.0625 29.75 C-8.88847656 28.96109375 -8.71445313 28.1721875 -8.53515625 27.359375 C-8.052444 25.23121297 -7.53836822 23.11467158 -7 21 C-7.6496875 20.50628906 -8.299375 20.01257813 -8.96875 19.50390625 C-9.8040625 18.86324219 -10.639375 18.22257812 -11.5 17.5625 C-12.3353125 16.92441406 -13.170625 16.28632812 -14.03125 15.62890625 C-15.00578125 14.82259766 -15.00578125 14.82259766 -16 14 C-16 13.67 -16 13.34 -16 13 C-11.71 13 -7.42 13 -3 13 C-2.690625 11.5975 -2.38125 10.195 -2.0625 8.75 C-1.41650906 5.82150775 -0.73989213 2.90624297 0 0 Z " fill="#F4F5F8" transform="translate(239,49)"/>
<path d="M0 0 C2 1 2 1 2.8515625 2.9609375 C3.10679687 3.75757813 3.36203125 4.55421875 3.625 5.375 C4.01558594 6.56222656 4.01558594 6.56222656 4.4140625 7.7734375 C5 10 5 10 5 13 C9.29 13 13.58 13 18 13 C14.82418312 16.44802976 12.39309313 18.41996314 8 20 C8.30035156 20.75925781 8.60070312 21.51851562 8.91015625 22.30078125 C9.29042969 23.29464844 9.67070312 24.28851563 10.0625 25.3125 C10.44535156 26.29863281 10.82820313 27.28476562 11.22265625 28.30078125 C12 31 12 31 11 34 C10.40832031 33.47148438 9.81664062 32.94296875 9.20703125 32.3984375 C8.41683594 31.73070313 7.62664062 31.06296875 6.8125 30.375 C5.64654297 29.36566406 5.64654297 29.36566406 4.45703125 28.3359375 C2.06249871 26.67840032 2.06249871 26.67840032 -0.59375 27.625 C-2.71122995 28.83498854 -4.49048835 30.01485017 -6.3125 31.625 C-7.199375 32.40875 -8.08625 33.1925 -9 34 C-9.66 33.67 -10.32 33.34 -11 33 C-10.7834375 32.39671875 -10.566875 31.7934375 -10.34375 31.171875 C-10.0653125 30.37265625 -9.786875 29.5734375 -9.5 28.75 C-9.2215625 27.96109375 -8.943125 27.1721875 -8.65625 26.359375 C-7.82135139 23.76587262 -7.82135139 23.76587262 -8 20 C-9.74364411 18.24533584 -9.74364411 18.24533584 -12 16.8125 C-13.34422229 15.89068089 -14.68066857 14.95710428 -16 14 C-16 13.67 -16 13.34 -16 13 C-10.06 12.505 -10.06 12.505 -4 12 C-2.68 8.04 -1.36 4.08 0 0 Z " fill="#F3F4F7" transform="translate(279,15)"/>
<path d="M0 0 C2.08379509 3.84700632 3.49686624 7.90054429 5 12 C8.96 12.33 12.92 12.66 17 13 C14.42215154 15.64752004 12.08351902 17.94432065 9 20 C9.59619955 24.86896303 10.56976822 29.32790951 12 34 C7.95579349 32.22054913 4.53921513 29.60470327 1 27 C-1.86867231 28.38264837 -4.56024032 29.92148553 -7.25 31.625 C-8.30960938 32.29402344 -8.30960938 32.29402344 -9.390625 32.9765625 C-9.92171875 33.31429687 -10.4528125 33.65203125 -11 34 C-10.00956295 29.16371695 -9.04301154 24.52381127 -7 20 C-7.721875 19.773125 -8.44375 19.54625 -9.1875 19.3125 C-12.53209313 17.75168987 -14.51603959 15.6968713 -17 13 C-12.71 13 -8.42 13 -4 13 C-3.71125 11.5975 -3.4225 10.195 -3.125 8.75 C-2.46276373 5.53342384 -1.57554035 2.88628401 0 0 Z " fill="#F3F4F7" transform="translate(200,15)"/>
<path d="M0 0 C3.49832218 4.66442957 3.92640115 7.38425216 5 13 C9.29 13 13.58 13 18 13 C13 18 13 18 10 20 C9.34 20 8.68 20 8 20 C8.2165625 20.60328125 8.433125 21.2065625 8.65625 21.828125 C8.9346875 22.62734375 9.213125 23.4265625 9.5 24.25 C9.7784375 25.03890625 10.056875 25.8278125 10.34375 26.640625 C11 29 11 29 11 33 C7.56404834 31.47291037 4.88087546 29.40072955 2 27 C-2.59306496 28.4859916 -5.43569245 30.85014682 -9 34 C-9.66 33.67 -10.32 33.34 -11 33 C-10.7834375 32.39671875 -10.566875 31.7934375 -10.34375 31.171875 C-10.0653125 30.37265625 -9.786875 29.5734375 -9.5 28.75 C-9.2215625 27.96109375 -8.943125 27.1721875 -8.65625 26.359375 C-7.82135139 23.76587262 -7.82135139 23.76587262 -8 20 C-9.97546037 18.23530442 -9.97546037 18.23530442 -12.5 16.8125 C-14.01038202 15.8918196 -15.51340655 14.9586168 -17 14 C-17 13.67 -17 13.34 -17 13 C-10.565 12.505 -10.565 12.505 -4 12 C-2.68 8.04 -1.36 4.08 0 0 Z " fill="#F3F5F7" transform="translate(120,288)"/>
<path d="M0 0 C3.49832218 4.66442957 3.92640115 7.38425216 5 13 C9.29 13 13.58 13 18 13 C13 18 13 18 10 20 C9.34 20 8.68 20 8 20 C8.2165625 20.60328125 8.433125 21.2065625 8.65625 21.828125 C8.9346875 22.62734375 9.213125 23.4265625 9.5 24.25 C9.7784375 25.03890625 10.056875 25.8278125 10.34375 26.640625 C11 29 11 29 11 33 C7.22272911 31.18690997 3.62730178 29.0926741 0 27 C-2.97 29.31 -5.94 31.62 -9 34 C-9.66 33.67 -10.32 33.34 -11 33 C-10.7834375 32.39671875 -10.566875 31.7934375 -10.34375 31.171875 C-10.0653125 30.37265625 -9.786875 29.5734375 -9.5 28.75 C-9.2215625 27.96109375 -8.943125 27.1721875 -8.65625 26.359375 C-7.82135139 23.76587262 -7.82135139 23.76587262 -8 20 C-9.74364411 18.24533584 -9.74364411 18.24533584 -12 16.8125 C-13.34422229 15.89068089 -14.68066857 14.95710428 -16 14 C-16 13.67 -16 13.34 -16 13 C-10.06 12.505 -10.06 12.505 -4 12 C-2.68 8.04 -1.36 4.08 0 0 Z " fill="#F3F4F7" transform="translate(120,15)"/>
<path d="M0 0 C0.66 0 1.32 0 2 0 C2.50757862 1.41396902 3.00574925 2.83131729 3.5 4.25 C3.7784375 5.03890625 4.056875 5.8278125 4.34375 6.640625 C5 9 5 9 5 13 C9.29 13 13.58 13 18 13 C15.14021487 15.93922361 12.31192213 18.58682597 9 21 C9.22816406 21.68707031 9.45632812 22.37414062 9.69140625 23.08203125 C9.97886719 23.98308594 10.26632813 24.88414063 10.5625 25.8125 C10.85253906 26.70582031 11.14257812 27.59914063 11.44140625 28.51953125 C12 31 12 31 11 34 C8.03 31.69 5.06 29.38 2 27 C-0.89511173 28.44755587 -3.53127396 29.90314017 -6.25 31.625 C-7.30960938 32.29402344 -7.30960938 32.29402344 -8.390625 32.9765625 C-8.92171875 33.31429687 -9.4528125 33.65203125 -10 34 C-9.00956295 29.16371695 -8.04301154 24.52381127 -6 20 C-6.721875 19.773125 -7.44375 19.54625 -8.1875 19.3125 C-11.53209313 17.75168987 -13.51603959 15.6968713 -16 13 C-11.71 13 -7.42 13 -3 13 C-2.690625 11.411875 -2.38125 9.82375 -2.0625 8.1875 C-1.51076205 5.35524518 -0.91407022 2.74221066 0 0 Z " fill="#F3F5F7" transform="translate(40,15)"/>
<path d="M0 0 C0.66 0 1.32 0 2 0 C2.50512244 1.60256108 3.00391627 3.20711792 3.5 4.8125 C3.7784375 5.70582031 4.056875 6.59914063 4.34375 7.51953125 C5 10 5 10 5 13 C9.29 13 13.58 13 18 13 C14.82418312 16.44802976 12.39309313 18.41996314 8 20 C8.30035156 20.75925781 8.60070312 21.51851562 8.91015625 22.30078125 C9.29042969 23.29464844 9.67070312 24.28851563 10.0625 25.3125 C10.44535156 26.29863281 10.82820313 27.28476562 11.22265625 28.30078125 C12 31 12 31 11 34 C8.03 31.69 5.06 29.38 2 27 C-0.89511173 28.44755587 -3.53127396 29.90314017 -6.25 31.625 C-7.30960937 32.29402344 -7.30960937 32.29402344 -8.390625 32.9765625 C-8.92171875 33.31429687 -9.4528125 33.65203125 -10 34 C-9.68817931 32.58318366 -9.37551263 31.16655349 -9.0625 29.75 C-8.88847656 28.96109375 -8.71445312 28.1721875 -8.53515625 27.359375 C-8.052444 25.23121297 -7.53836822 23.11467158 -7 21 C-7.6496875 20.50628906 -8.299375 20.01257813 -8.96875 19.50390625 C-9.8040625 18.86324219 -10.639375 18.22257812 -11.5 17.5625 C-12.3353125 16.92441406 -13.170625 16.28632813 -14.03125 15.62890625 C-15.00578125 14.82259766 -15.00578125 14.82259766 -16 14 C-16 13.67 -16 13.34 -16 13 C-11.71 13 -7.42 13 -3 13 C-2.87625 11.96875 -2.7525 10.9375 -2.625 9.875 C-2.06110186 6.37883154 -1.21317941 3.31602373 0 0 Z " fill="#F3F5F7" transform="translate(438,15)"/>
<path d="M0 0 C0 3 0 3 -2.5 5.6875 C-3.325 6.450625 -4.15 7.21375 -5 8 C-5.33 6.68 -5.66 5.36 -6 4 C-4.02 2.68 -2.04 1.36 0 0 Z " fill="#16346E" transform="translate(293,304)"/>
<path d="M0 0 C0 3 0 3 -1.875 5.1875 C-4 7 -4 7 -6 7 C-6 6.01 -6 5.02 -6 4 C-3 1.8125 -3 1.8125 0 0 Z " fill="#1F3C73" transform="translate(253,270)"/>
</svg>
